<svg width="150" height="150" viewBox="0 0 150 150" fill="none" xmlns="http://www.w3.org/2000/svg">
<rect width="150" height="150" rx="75" fill="#8AF9FF"/>
<rect x="15.5" y="15.5" width="119" height="119" rx="59.5" stroke="#00575B"/>
<path d="M69.3877 55.7908C74.0765 54.4214 79.2751 54.7555 83.983 57.1239C93.8535 62.0895 97.8298 74.1164 92.8643 83.9869C87.8987 93.8574 75.8718 97.8337 66.0013 92.8682C61.2933 90.4997 57.9263 86.5248 56.231 81.9437" stroke="#00575B" stroke-linecap="round"/>
<path d="M60.7456 95.5429C53.7194 90.6577 49.3859 82.2895 50.0694 73.1378C51.0979 59.3691 63.0934 49.041 76.8622 50.0695C90.6309 51.0979 100.959 63.0934 99.9305 76.8622C99.247 86.0138 93.7183 93.6454 86.0443 97.4326" stroke="#00575B" stroke-linecap="round"/>
<path d="M53.7868 96.2132C42.0711 84.4975 42.0711 65.5025 53.7868 53.7868C65.5025 42.0711 84.4975 42.0711 96.2132 53.7868C107.929 65.5025 107.929 84.4975 96.2132 96.2132C84.4975 107.929 65.5025 107.929 53.7868 96.2132Z" stroke="#00575B"/>
<mask id="path-6-outside-1_1_72" maskUnits="userSpaceOnUse" x="30.6125" y="89.1011" width="17.2386" height="18.6094" fill="black">
<rect fill="white" x="30.6125" y="89.1011" width="17.2386" height="18.6094"/>
<path d="M44.5471 98.4212L38.4394 105.116L37.8704 104.205L42.9084 98.8542L42.8632 98.7819L35.8747 101.011L35.2426 99.9985L40.2624 94.6184L40.2173 94.5461L33.2468 96.8036L32.6779 95.8928L41.3142 93.2457L41.8922 94.1709L37.038 99.5268L37.0741 99.5846L43.9692 97.496L44.5471 98.4212Z"/>
</mask>
<path d="M44.5471 98.4212L45.2809 99.0982L45.7962 98.5334L45.3918 97.886L44.5471 98.4212ZM38.4394 105.116L37.5947 105.651L38.2888 106.763L39.1732 105.793L38.4394 105.116ZM37.8704 104.205L37.1473 103.517L36.6147 104.083L37.0257 104.741L37.8704 104.205ZM42.9084 98.8542L43.6315 99.5427L44.1641 98.977L43.7531 98.319L42.9084 98.8542ZM42.8632 98.7819L43.7079 98.2467L43.2988 97.5918L42.5643 97.826L42.8632 98.7819ZM35.8747 101.011L35.03 101.546L35.4391 102.201L36.1737 101.966L35.8747 101.011ZM35.2426 99.9985L34.5164 99.3133L33.9888 99.8788L34.3979 100.534L35.2426 99.9985ZM40.2624 94.6184L40.9886 95.3036L41.5162 94.7381L41.1071 94.0832L40.2624 94.6184ZM40.2173 94.5461L41.062 94.0109L40.651 93.3529L39.914 93.5916L40.2173 94.5461ZM33.2468 96.8036L32.4021 97.3388L32.8131 97.9968L33.5501 97.7581L33.2468 96.8036ZM32.6779 95.8928L32.3897 94.9335L31.1391 95.3169L31.8332 96.428L32.6779 95.8928ZM41.3142 93.2457L42.1589 92.7105L41.7545 92.0631L41.026 92.2865L41.3142 93.2457ZM41.8922 94.1709L42.6282 94.8455L43.1399 94.2809L42.7369 93.6357L41.8922 94.1709ZM37.038 99.5268L36.302 98.8523L35.7903 99.4169L36.1933 100.062L37.038 99.5268ZM37.0741 99.5846L36.2294 100.12L36.6324 100.765L37.3593 100.545L37.0741 99.5846ZM43.9692 97.496L44.8139 96.9608L44.4109 96.3156L43.6841 96.5358L43.9692 97.496ZM43.8133 97.7443L37.7055 104.439L39.1732 105.793L45.2809 99.0982L43.8133 97.7443ZM39.2841 104.581L38.7152 103.67L37.0257 104.741L37.5947 105.651L39.2841 104.581ZM38.5936 104.894L43.6315 99.5427L42.1852 98.1657L37.1473 103.517L38.5936 104.894ZM43.7531 98.319L43.7079 98.2467L42.0185 99.3172L42.0636 99.3895L43.7531 98.319ZM42.5643 97.826L35.5758 100.055L36.1737 101.966L43.1621 99.7379L42.5643 97.826ZM36.7194 100.475L36.0873 99.4633L34.3979 100.534L35.03 101.546L36.7194 100.475ZM35.9688 100.684L40.9886 95.3036L39.5362 93.9332L34.5164 99.3133L35.9688 100.684ZM41.1071 94.0832L41.062 94.0109L39.3726 95.0813L39.4177 95.1536L41.1071 94.0832ZM39.914 93.5916L32.9436 95.849L33.5501 97.7581L40.5205 95.5007L39.914 93.5916ZM34.0916 96.2684L33.5226 95.3576L31.8332 96.428L32.4021 97.3388L34.0916 96.2684ZM32.9662 96.8521L41.6024 94.205L41.026 92.2865L32.3897 94.9335L32.9662 96.8521ZM40.4695 93.7809L41.0474 94.7062L42.7369 93.6357L42.1589 92.7105L40.4695 93.7809ZM41.1561 93.4964L36.302 98.8523L37.7741 100.201L42.6282 94.8455L41.1561 93.4964ZM36.1933 100.062L36.2294 100.12L37.9189 99.0494L37.8827 98.9916L36.1933 100.062ZM37.3593 100.545L44.2543 98.4562L43.6841 96.5358L36.789 98.6244L37.3593 100.545ZM43.1245 98.0312L43.7024 98.9565L45.3918 97.886L44.8139 96.9608L43.1245 98.0312Z" fill="#00575B" mask="url(#path-6-outside-1_1_72)"/>
<mask id="path-8-outside-2_1_72" maskUnits="userSpaceOnUse" x="29.1016" y="78.2774" width="11.5324" height="10.7739" fill="black">
<rect fill="white" x="29.1016" y="78.2774" width="11.5324" height="10.7739"/>
<path d="M37.9293 82.9777C38.0424 83.5577 38.0036 84.0939 37.8131 84.5862C37.622 85.0758 37.3024 85.4923 36.8541 85.8358C36.4054 86.1765 35.8493 86.4125 35.186 86.5437C34.5172 86.6759 33.9097 86.6701 33.3635 86.5262C32.8168 86.3795 32.3631 86.1159 32.0024 85.7355C31.6411 85.3523 31.4039 84.8707 31.2908 84.2907C31.1778 83.7107 31.2168 83.1759 31.4078 82.6864C31.5984 82.194 31.9194 81.7772 32.371 81.436C32.822 81.0919 33.3819 80.8538 34.0508 80.7215C34.7141 80.5903 35.3177 80.5983 35.8616 80.7456C36.405 80.8901 36.8573 81.1539 37.2186 81.5371C37.5793 81.9176 37.8162 82.3978 37.9293 82.9777ZM37.043 83.153C36.9571 82.7125 36.7736 82.3723 36.4924 82.1325C36.2112 81.8928 35.8733 81.7409 35.4788 81.6771C35.0843 81.6132 34.6725 81.6237 34.2433 81.7086C33.8141 81.7935 33.4275 81.9409 33.0835 82.1508C32.7394 82.3608 32.4809 82.6305 32.3078 82.9602C32.1348 83.2898 32.0912 83.6749 32.1771 84.1154C32.263 84.556 32.4479 84.8959 32.7319 85.1351C33.0159 85.3743 33.3565 85.5256 33.7538 85.5889C34.1511 85.6522 34.5644 85.6415 34.9936 85.5566C35.4228 85.4717 35.808 85.3245 36.1492 85.1152C36.4904 84.9058 36.7462 84.6365 36.9165 84.3075C37.0868 83.9784 37.129 83.5936 37.043 83.153Z"/>
</mask>
<path d="M37.8131 84.5862L38.7439 84.9484L38.745 84.9457L37.8131 84.5862ZM36.8541 85.8358L37.4568 86.6325L37.4604 86.6297L36.8541 85.8358ZM33.3635 86.5262L33.1024 87.4926L33.1068 87.4938L33.3635 86.5262ZM32.0024 85.7355L31.2746 86.4231L31.2766 86.4252L32.0024 85.7355ZM31.4078 82.6864L32.3387 83.0485L32.3397 83.0458L31.4078 82.6864ZM32.371 81.436L32.972 82.2339L32.9755 82.2312L32.371 81.436ZM35.8616 80.7456L35.5984 81.7115L35.6028 81.7126L35.8616 80.7456ZM37.2186 81.5371L36.4909 82.2248L36.4928 82.2269L37.2186 81.5371ZM36.4924 82.1325L35.8432 82.8949L35.8432 82.8949L36.4924 82.1325ZM35.4788 81.6771L35.6408 80.6894L35.6408 80.6894L35.4788 81.6771ZM33.0835 82.1508L32.5648 81.2969L32.5648 81.2969L33.0835 82.1508ZM32.3078 82.9602L31.4234 82.4964L31.4234 82.4964L32.3078 82.9602ZM32.7319 85.1351L32.0873 85.9013L32.0873 85.9013L32.7319 85.1351ZM33.7538 85.5889L33.5943 86.577L33.5943 86.577L33.7538 85.5889ZM36.1492 85.1152L36.67 85.9678L36.67 85.9678L36.1492 85.1152ZM36.9165 84.3075L36.0292 83.849L36.0292 83.849L36.9165 84.3075ZM36.9483 83.1718C37.0297 83.5895 36.9955 83.9315 36.8812 84.2268L38.745 84.9457C39.0118 84.2563 39.055 83.526 38.9103 82.7837L36.9483 83.1718ZM36.8823 84.2241C36.7629 84.5301 36.5618 84.8014 36.2478 85.0419L37.4604 86.6297C38.0429 86.1833 38.4812 85.6216 38.7439 84.9483L36.8823 84.2241ZM36.2514 85.0392C35.946 85.2711 35.5383 85.4546 34.9947 85.5621L35.3774 87.5252C36.1603 87.3703 36.8647 87.082 37.4568 86.6324L36.2514 85.0392ZM34.9947 85.5621C34.4442 85.671 33.993 85.6569 33.6202 85.5586L33.1068 87.4938C33.8263 87.6834 34.5902 87.6809 35.3774 87.5252L34.9947 85.5621ZM33.6246 85.5598C33.2407 85.4568 32.9524 85.2823 32.7281 85.0458L31.2766 86.4252C31.7738 86.9496 32.3929 87.3022 33.1024 87.4926L33.6246 85.5598ZM32.7301 85.0479C32.5133 84.8179 32.3533 84.5144 32.2718 84.0967L30.3098 84.4847C30.4546 85.227 30.7689 85.8866 31.2746 86.4231L32.7301 85.0479ZM32.2718 84.0967C32.1904 83.6788 32.2251 83.3395 32.3387 83.0485L30.477 82.3243C30.2084 83.0124 30.1651 83.7426 30.3098 84.4847L32.2718 84.0967ZM32.3397 83.0458C32.458 82.7402 32.6581 82.4711 32.972 82.2339L31.77 80.638C31.1808 81.0834 30.7388 81.6479 30.476 82.327L32.3397 83.0458ZM32.9755 82.2312C33.2825 81.997 33.6933 81.8116 34.2422 81.703L33.8594 79.74C33.0706 79.896 32.3615 80.1868 31.7664 80.6408L32.9755 82.2312ZM34.2422 81.703C34.7843 81.5958 35.2293 81.6115 35.5984 81.7115L36.1248 79.7798C35.4061 79.5852 34.6439 79.5848 33.8594 79.74L34.2422 81.703ZM35.6028 81.7126C35.9795 81.8128 36.2655 81.9857 36.4909 82.2248L37.9463 80.8495C37.4491 80.3221 36.8305 79.9674 36.1205 79.7786L35.6028 81.7126ZM36.4928 82.2269C36.7072 82.453 36.8668 82.7539 36.9483 83.1718L38.9103 82.7837C38.7656 82.0416 38.4514 81.3821 37.9443 80.8474L36.4928 82.2269ZM38.024 82.959C37.9044 82.3455 37.6287 81.7855 37.1416 81.3702L35.8432 82.8949C35.9185 82.9591 36.0099 83.0794 36.0621 83.3471L38.024 82.959ZM37.1416 81.3702C36.7105 81.0026 36.2002 80.7799 35.6408 80.6894L35.3169 82.6647C35.5465 82.7019 35.7119 82.7829 35.8432 82.8949L37.1416 81.3702ZM35.6408 80.6894C35.1186 80.6048 34.5867 80.6213 34.0519 80.7271L34.4347 82.6901C34.7582 82.6261 35.05 82.6215 35.3169 82.6647L35.6408 80.6894ZM34.0519 80.7271C33.517 80.8329 33.0179 81.0203 32.5648 81.2969L33.6022 83.0047C33.837 82.8614 34.1112 82.7541 34.4347 82.6901L34.0519 80.7271ZM32.5648 81.2969C32.0791 81.5932 31.6878 81.9927 31.4234 82.4964L33.1923 83.4239C33.274 83.2683 33.3998 83.1283 33.6022 83.0047L32.5648 81.2969ZM31.4234 82.4964C31.1235 83.0675 31.0759 83.6932 31.1961 84.3094L33.1581 83.9214C33.1064 83.6565 33.146 83.512 33.1923 83.4239L31.4234 82.4964ZM31.1961 84.3094C31.3162 84.9257 31.5952 85.4868 32.0873 85.9013L33.3766 84.3689C33.3007 84.305 33.2097 84.1863 33.1581 83.9214L31.1961 84.3094ZM32.0873 85.9013C32.5212 86.2668 33.0334 86.4876 33.5943 86.577L33.9134 84.6008C33.6796 84.5636 33.5106 84.4818 33.3766 84.3689L32.0873 85.9013ZM33.5943 86.577C34.1177 86.6604 34.6501 86.6439 35.185 86.5381L34.8022 84.5751C34.4787 84.639 34.1846 84.6441 33.9134 84.6008L33.5943 86.577ZM35.185 86.5381C35.7197 86.4323 36.2184 86.2449 36.67 85.9678L35.6284 84.2625C35.3976 84.4041 35.1258 84.5111 34.8022 84.5751L35.185 86.5381ZM36.67 85.9678C37.1539 85.6709 37.5427 85.2704 37.8037 84.7659L36.0292 83.849C35.9497 84.0027 35.827 84.1406 35.6284 84.2625L36.67 85.9678ZM37.8037 84.7659C38.0987 84.1959 38.1437 83.5725 38.024 82.959L36.0621 83.3471C36.1142 83.6147 36.0748 83.7609 36.0292 83.849L37.8037 84.7659Z" fill="#00575B" mask="url(#path-8-outside-2_1_72)"/>
<mask id="path-10-outside-3_1_72" maskUnits="userSpaceOnUse" x="28.8971" y="67.6917" width="9.57526" height="7.76949" fill="black">
<rect fill="white" x="28.8971" y="67.6917" width="9.57526" height="7.76949"/>
<path d="M37.0332 73.4595L30.5134 72.8805L30.5982 71.9126L31.5829 72.0001L31.5889 71.9322C31.2767 71.7847 31.0338 71.5463 30.8601 71.2172C30.6865 70.888 30.6167 70.5282 30.6509 70.1376C30.6574 70.064 30.6668 69.9722 30.6793 69.8621C30.6918 69.7519 30.7034 69.6688 30.714 69.6127L31.7327 69.7032C31.7213 69.7364 31.7017 69.8131 31.6741 69.9333C31.6439 70.0504 31.6229 70.1755 31.6113 70.3085C31.5835 70.6254 31.6253 70.9143 31.7364 71.1752C31.8451 71.433 32.0091 71.6443 32.2285 71.8093C32.4453 71.9711 32.7009 72.0651 32.9951 72.0913L37.121 72.4577L37.0332 73.4595Z"/>
</mask>
<path d="M37.0332 73.4595L36.946 74.4557L37.9421 74.5442L38.0293 73.548L37.0332 73.4595ZM30.5134 72.8805L29.5174 72.7921L29.4301 73.7882L30.4262 73.8767L30.5134 72.8805ZM30.5982 71.9126L30.6854 70.9164L29.6893 70.828L29.6021 71.8242L30.5982 71.9126ZM31.5829 72.0001L31.4957 72.9963L32.4918 73.0847L32.579 72.0886L31.5829 72.0001ZM31.5889 71.9322L32.585 72.0206L32.6458 71.326L32.0151 71.028L31.5889 71.9322ZM30.8601 71.2172L29.9759 71.6831L29.9759 71.6831L30.8601 71.2172ZM30.714 69.6127L30.8012 68.6165L29.8998 68.5365L29.7315 69.4256L30.714 69.6127ZM31.7327 69.7032L32.6779 70.0306L33.0957 68.8203L31.8199 68.707L31.7327 69.7032ZM31.6741 69.9333L32.6423 70.1843L32.6456 70.1715L32.6485 70.1586L31.6741 69.9333ZM31.7364 71.1752L32.6578 70.7878L32.6562 70.7839L31.7364 71.1752ZM32.2285 71.8093L31.6283 72.6085L31.631 72.6105L32.2285 71.8093ZM37.121 72.4577L38.117 72.5462L38.2043 71.55L37.2082 71.4615L37.121 72.4577ZM37.1205 72.4634L30.6007 71.8843L30.4262 73.8767L36.946 74.4557L37.1205 72.4634ZM31.5095 72.969L31.5943 72.0011L29.6021 71.8242L29.5174 72.7921L31.5095 72.969ZM30.511 72.9088L31.4957 72.9963L31.6702 71.0039L30.6854 70.9164L30.511 72.9088ZM32.579 72.0886L32.585 72.0206L30.5928 71.8437L30.5869 71.9116L32.579 72.0886ZM32.0151 71.028C31.9145 70.9805 31.8251 70.9044 31.7443 70.7513L29.9759 71.6831C30.2425 72.1882 30.6389 72.5888 31.1627 72.8364L32.0151 71.028ZM31.7443 70.7513C31.6654 70.6018 31.6286 70.4359 31.647 70.2261L29.6549 70.0491C29.6048 70.6205 29.7075 71.1743 29.9759 71.6831L31.7443 70.7513ZM31.647 70.2261C31.6524 70.1641 31.6609 70.0814 31.6729 69.976L29.6858 69.7481C29.6728 69.863 29.6623 69.964 29.6549 70.0491L31.647 70.2261ZM31.6729 69.976C31.6846 69.8722 31.6929 69.8187 31.6965 69.7999L29.7315 69.4256C29.7139 69.519 29.699 69.6317 29.6858 69.7481L31.6729 69.976ZM30.6268 70.6089L31.6455 70.6994L31.8199 68.707L30.8012 68.6165L30.6268 70.6089ZM30.7875 69.3758C30.7552 69.4694 30.7239 69.6025 30.6996 69.708L32.6485 70.1586C32.6615 70.1024 32.6713 70.0616 32.6784 70.0338C32.6819 70.02 32.684 70.0121 32.6849 70.009C32.6864 70.0038 32.6839 70.0133 32.6779 70.0306L30.7875 69.3758ZM30.7059 69.6823C30.6606 69.8578 30.6312 70.0377 30.6152 70.22L32.6074 70.3969C32.6147 70.3132 32.6271 70.2429 32.6423 70.1843L30.7059 69.6823ZM30.6152 70.22C30.5749 70.6803 30.6335 71.1366 30.8167 71.5665L32.6562 70.7839C32.617 70.6921 32.5922 70.5706 32.6074 70.3969L30.6152 70.22ZM30.8151 71.5626C30.9911 71.9804 31.2645 72.335 31.6283 72.6085L32.8286 71.0101C32.7536 70.9537 32.699 70.8856 32.6578 70.7878L30.8151 71.5626ZM31.631 72.6105C32.0103 72.8936 32.4465 73.0465 32.9079 73.0875L33.0824 71.0951C32.9552 71.0838 32.8803 71.0487 32.8259 71.0081L31.631 72.6105ZM32.9079 73.0875L37.0337 73.4539L37.2082 71.4615L33.0824 71.0951L32.9079 73.0875ZM36.1249 72.3692L36.0372 73.3711L38.0293 73.548L38.117 72.5462L36.1249 72.3692Z" fill="#00575B" mask="url(#path-10-outside-3_1_72)"/>
<mask id="path-12-outside-4_1_72" maskUnits="userSpaceOnUse" x="28.5127" y="53.1574" width="13.7733" height="13.2497" fill="black">
<rect fill="white" x="28.5127" y="53.1574" width="13.7733" height="13.2497"/>
<path d="M36.6325 62.5349L35.462 62.1127L35.5331 61.9209L33.8011 58.2095L34.2339 57.0429L36.0602 60.9901L36.0306 61.07L36.6325 62.5349ZM38.5399 64.2543L30.3718 61.1807L30.7216 60.2378L38.8897 63.3114L38.5399 64.2543ZM39.9865 60.3549L36.0661 61.6115L35.661 60.6942L40.4311 59.1563L39.9865 60.3549Z"/>
</mask>
<path d="M36.6325 62.5349L36.2976 63.4772L38.4117 64.2398L37.5555 62.1561L36.6325 62.5349ZM35.462 62.1127L34.5261 61.7605L34.1735 62.711L35.127 63.055L35.462 62.1127ZM35.5331 61.9209L36.4691 62.2731L36.6149 61.8799L36.4372 61.4989L35.5331 61.9209ZM33.8011 58.2095L32.8652 57.8573L32.7193 58.2506L32.8971 58.6315L33.8011 58.2095ZM34.2339 57.0429L35.1393 56.6239L34.1311 54.4449L33.298 56.6907L34.2339 57.0429ZM36.0602 60.9901L36.9962 61.3423L37.1414 60.9509L36.9657 60.5711L36.0602 60.9901ZM36.0306 61.07L35.0947 60.7178L34.9583 61.0854L35.1077 61.4488L36.0306 61.07ZM38.5399 64.2543L38.1921 65.1919L39.128 65.5441L39.4758 64.6065L38.5399 64.2543ZM30.3718 61.1807L29.4359 60.8285L29.0881 61.7661L30.024 62.1183L30.3718 61.1807ZM30.7216 60.2378L31.0694 59.3003L30.1335 58.9481L29.7856 59.8856L30.7216 60.2378ZM38.8897 63.3114L39.8256 63.6636L40.1734 62.7261L39.2375 62.3739L38.8897 63.3114ZM39.9865 60.3549L40.2934 61.309L40.7539 61.1614L40.9224 60.7071L39.9865 60.3549ZM36.0661 61.6115L35.1534 62.0144L35.5178 62.8397L36.373 62.5656L36.0661 61.6115ZM35.661 60.6942L35.3524 59.7406L34.2992 60.0801L34.7483 61.0971L35.661 60.6942ZM40.4311 59.1563L41.3671 59.5085L42.0863 57.5696L40.1226 58.2027L40.4311 59.1563ZM36.9675 61.5926L35.7969 61.1704L35.127 63.055L36.2976 63.4772L36.9675 61.5926ZM36.3979 62.4649L36.4691 62.2731L34.5972 61.5687L34.5261 61.7605L36.3979 62.4649ZM36.4372 61.4989L34.7051 57.7875L32.8971 58.6315L34.6291 62.3429L36.4372 61.4989ZM34.737 58.5617L35.1698 57.3951L33.298 56.6907L32.8652 57.8573L34.737 58.5617ZM33.3285 57.4619L35.1548 61.4091L36.9657 60.5711L35.1393 56.6239L33.3285 57.4619ZM35.1243 60.6379L35.0947 60.7178L36.9665 61.4222L36.9962 61.3423L35.1243 60.6379ZM35.1077 61.4488L35.7096 62.9138L37.5555 62.1561L36.9535 60.6912L35.1077 61.4488ZM38.8877 63.3168L30.7196 60.2432L30.024 62.1183L38.1921 65.1919L38.8877 63.3168ZM31.3077 61.5329L31.6575 60.59L29.7856 59.8856L29.4359 60.8285L31.3077 61.5329ZM30.3738 61.1754L38.5419 64.249L39.2375 62.3739L31.0694 59.3003L30.3738 61.1754ZM37.9538 62.9592L37.604 63.9021L39.4758 64.6065L39.8256 63.6636L37.9538 62.9592ZM39.6795 59.4008L35.7591 60.6574L36.373 62.5656L40.2934 61.309L39.6795 59.4008ZM36.9787 61.2086L36.5737 60.2912L34.7483 61.0971L35.1534 62.0144L36.9787 61.2086ZM35.9695 61.6477L40.7397 60.1099L40.1226 58.2027L35.3524 59.7406L35.9695 61.6477ZM39.4952 58.8041L39.0505 60.0027L40.9224 60.7071L41.3671 59.5085L39.4952 58.8041Z" fill="#00575B" mask="url(#path-12-outside-4_1_72)"/>
<mask id="path-14-outside-5_1_72" maskUnits="userSpaceOnUse" x="35.7655" y="43.5206" width="13.3758" height="13.2967" fill="black">
<rect fill="white" x="35.7655" y="43.5206" width="13.3758" height="13.2967"/>
<path d="M44.9656 52.0474C44.6031 52.514 44.1746 52.8364 43.68 53.0146C43.1873 53.1905 42.6656 53.2206 42.115 53.1051C41.5662 52.9873 41.0263 52.7191 40.4952 52.3006C39.9597 51.8786 39.568 51.4127 39.3202 50.9027C39.0742 50.3906 38.9767 49.8725 39.0277 49.3484C39.0804 48.8221 39.288 48.3256 39.6505 47.859C40.0131 47.3923 40.4407 47.0711 40.9335 46.8952C41.4281 46.717 41.9508 46.6877 42.5019 46.8073C43.0547 46.9246 43.5988 47.1943 44.1344 47.6163C44.6654 48.0348 45.0529 48.4992 45.2967 49.0096C45.5422 49.5178 45.6386 50.035 45.5859 50.5613C45.5349 51.0854 45.3282 51.5807 44.9656 52.0474ZM44.2561 51.4882C44.5314 51.1338 44.6676 50.7709 44.6647 50.3996C44.6617 50.0284 44.5557 49.6717 44.3465 49.3297C44.1374 48.9877 43.861 48.6813 43.5174 48.4105C43.1737 48.1397 42.8108 47.9423 42.4287 47.8184C42.0465 47.6945 41.675 47.6748 41.3143 47.7595C40.9536 47.8441 40.6355 48.0637 40.3601 48.4181C40.0847 48.7726 39.9496 49.1364 39.9548 49.5094C39.96 49.8824 40.0683 50.2408 40.2797 50.5846C40.4911 50.9284 40.7686 51.2357 41.1122 51.5065C41.4558 51.7772 41.8176 51.9737 42.1975 52.0959C42.5775 52.2181 42.9467 52.2359 43.3052 52.1495C43.6637 52.0631 43.9807 51.8427 44.2561 51.4882Z"/>
</mask>
<path d="M43.68 53.0146L44.0145 53.9603L44.0172 53.9593L43.68 53.0146ZM42.115 53.1051L41.9087 54.0864L41.9132 54.0873L42.115 53.1051ZM39.3202 50.9027L38.4232 51.3384L38.4251 51.3424L39.3202 50.9027ZM39.0277 49.3484L38.0361 49.2461L38.0358 49.2489L39.0277 49.3484ZM40.9335 46.8952L41.268 47.8409L41.2707 47.8399L40.9335 46.8952ZM42.5019 46.8073L42.2935 47.7881L42.2979 47.7891L42.5019 46.8073ZM45.2967 49.0096L44.3986 49.4433L44.4006 49.4473L45.2967 49.0096ZM45.5859 50.5613L44.5943 50.459L44.594 50.4619L45.5859 50.5613ZM44.6647 50.3996L43.6681 50.406L43.6681 50.406L44.6647 50.3996ZM44.3465 49.3297L45.195 48.8048L45.195 48.8048L44.3465 49.3297ZM42.4287 47.8184L42.7328 46.8634L42.7328 46.8634L42.4287 47.8184ZM41.3143 47.7595L41.0865 46.7823L41.0865 46.7823L41.3143 47.7595ZM39.9548 49.5094L38.9583 49.5218L38.9583 49.5218L39.9548 49.5094ZM40.2797 50.5846L39.4325 51.1116L39.4325 51.1116L40.2797 50.5846ZM42.1975 52.0959L41.8957 53.0516L41.8957 53.0516L42.1975 52.0959ZM43.3052 52.1495L43.0717 51.1737L43.0717 51.1737L43.3052 52.1495ZM44.1802 51.4284C43.9191 51.7645 43.6396 51.9629 43.3429 52.0698L44.0172 53.9593C44.7096 53.7099 45.2871 53.2635 45.7511 52.6663L44.1802 51.4284ZM43.3456 52.0688C43.0377 52.1788 42.7025 52.2038 42.3169 52.1229L41.9132 54.0873C42.6286 54.2375 43.3368 54.2022 44.0145 53.9603L43.3456 52.0688ZM42.3213 52.1238C41.9478 52.0436 41.544 51.854 41.1087 51.5109L39.8817 53.0903C40.5086 53.5843 41.1846 53.9309 41.9087 54.0864L42.3213 52.1238ZM41.1087 51.5109C40.668 51.1636 40.3845 50.8111 40.2154 50.463L38.4251 51.3424C38.7516 52.0142 39.2514 52.5936 39.8817 53.0903L41.1087 51.5109ZM40.2173 50.4671C40.0446 50.1075 39.9879 49.7737 40.0196 49.4478L38.0358 49.2489C37.9655 49.9713 38.1038 50.6737 38.4232 51.3384L40.2173 50.4671ZM40.0193 49.4507C40.0509 49.135 40.1749 48.814 40.436 48.4779L38.8651 47.24C38.4012 47.8372 38.1099 48.5092 38.0361 49.2461L40.0193 49.4507ZM40.436 48.4779C40.6972 48.1417 40.9751 47.9455 41.268 47.8409L40.5991 45.9494C39.9064 46.1967 39.329 46.643 38.8651 47.24L40.436 48.4779ZM41.2707 47.8399C41.5776 47.7294 41.9105 47.705 42.2935 47.7881L42.7103 45.8265C41.9912 45.6705 41.2785 45.7047 40.5964 45.9504L41.2707 47.8399ZM42.2979 47.7891C42.6741 47.8689 43.0814 48.0597 43.5209 48.406L44.7479 46.8266C44.1163 46.3289 43.4353 45.9803 42.7059 45.8255L42.2979 47.7891ZM43.5209 48.406C43.9549 48.748 44.2332 49.0969 44.3986 49.4432L46.1947 48.576C45.8725 47.9016 45.3759 47.3215 44.7479 46.8266L43.5209 48.406ZM44.4006 49.4473C44.5708 49.7996 44.6272 50.1307 44.5943 50.459L46.5775 50.6637C46.6501 49.9394 46.5136 49.236 46.1927 48.5719L44.4006 49.4473ZM44.594 50.4619C44.5637 50.7734 44.4414 51.0923 44.1802 51.4284L45.7511 52.6663C46.2149 52.0692 46.5061 51.3974 46.5778 50.6608L44.594 50.4619ZM45.0415 52.1072C45.425 51.6136 45.6664 51.0363 45.6613 50.3932L43.6681 50.406C43.6689 50.5055 43.6379 50.6539 43.4706 50.8693L45.0415 52.1072ZM45.6613 50.3932C45.6567 49.8241 45.4916 49.2898 45.195 48.8048L43.498 49.8546C43.6198 50.0537 43.6667 50.2327 43.6681 50.406L45.6613 50.3932ZM45.195 48.8048C44.9182 48.352 44.5591 47.9582 44.1309 47.6208L42.9039 49.2002C43.1629 49.4043 43.3566 49.6233 43.498 49.8546L45.195 48.8048ZM44.1309 47.6208C43.7026 47.2833 43.2363 47.0267 42.7328 46.8634L42.1245 48.7734C42.3854 48.858 42.6449 48.9961 42.9039 49.2002L44.1309 47.6208ZM42.7328 46.8634C42.1933 46.6885 41.6378 46.653 41.0865 46.7823L41.5421 48.7367C41.7123 48.6967 41.8997 48.7005 42.1245 48.7734L42.7328 46.8634ZM41.0865 46.7823C40.4615 46.929 39.9599 47.3034 39.5747 47.7992L41.1456 49.0371C41.3111 48.824 41.4456 48.7593 41.5421 48.7367L41.0865 46.7823ZM39.5747 47.7992C39.1895 48.295 38.9493 48.8755 38.9583 49.5218L40.9514 49.497C40.95 49.3973 40.98 49.2502 41.1456 49.0371L39.5747 47.7992ZM38.9583 49.5218C38.9662 50.0917 39.1341 50.6263 39.4325 51.1116L41.1269 50.0575C41.0025 49.8553 40.9538 49.673 40.9514 49.497L38.9583 49.5218ZM39.4325 51.1116C39.7109 51.5645 40.0704 51.9587 40.4987 52.2961L41.7257 50.7168C41.4667 50.5127 41.2712 50.2922 41.1269 50.0575L39.4325 51.1116ZM40.4987 52.2961C40.9269 52.6336 41.3928 52.8899 41.8957 53.0516L42.4994 51.1402C42.2424 51.0575 41.9848 50.9209 41.7257 50.7168L40.4987 52.2961ZM41.8957 53.0516C42.4345 53.2249 42.9891 53.2578 43.5388 53.1253L43.0717 51.1737C42.9043 51.2141 42.7205 51.2113 42.4994 51.1402L41.8957 53.0516ZM43.5388 53.1253C44.1598 52.9757 44.658 52.6008 45.0415 52.1072L43.4706 50.8693C43.3033 51.0846 43.1677 51.1506 43.0717 51.1737L43.5388 53.1253Z" fill="#00575B" mask="url(#path-14-outside-5_1_72)"/>
<mask id="path-16-outside-6_1_72" maskUnits="userSpaceOnUse" x="45.3744" y="34.4636" width="13.0317" height="13.3794" fill="black">
<rect fill="white" x="45.3744" y="34.4636" width="13.0317" height="13.3794"/>
<path d="M53.3446 40.5436L51.1688 37.3439L51.9967 36.7729L55.6772 42.1855L54.8494 42.7565L54.2264 41.8403L54.1702 41.8791C54.2308 42.241 54.1934 42.6103 54.0578 42.9868C53.9205 43.361 53.6485 43.6884 53.2416 43.969C52.9048 44.2013 52.5552 44.3338 52.1926 44.3665C51.8285 44.3968 51.4693 44.3132 51.1152 44.1157C50.7594 43.9159 50.425 43.5858 50.1119 43.1253L47.7732 39.686L48.6011 39.115L50.9014 42.4979C51.1698 42.8926 51.4938 43.1316 51.8733 43.2149C52.2552 43.2966 52.6181 43.2188 52.9618 42.9817C53.1676 42.8398 53.341 42.6426 53.4819 42.3901C53.6252 42.1359 53.695 41.8496 53.6915 41.5312C53.6902 41.2111 53.5746 40.8819 53.3446 40.5436Z"/>
</mask>
<path d="M51.1688 37.3439L50.6065 36.517L49.7833 37.0848L50.3456 37.9117L51.1688 37.3439ZM51.9967 36.7729L52.8198 36.2051L52.2575 35.3782L51.4343 35.946L51.9967 36.7729ZM55.6772 42.1855L56.2395 43.0125L57.0627 42.4447L56.5004 41.6177L55.6772 42.1855ZM54.8494 42.7565L54.0262 43.3243L54.5885 44.1513L55.4117 43.5835L54.8494 42.7565ZM54.2264 41.8403L55.0495 41.2726L54.4872 40.4456L53.664 41.0134L54.2264 41.8403ZM54.1702 41.8791L53.6079 41.0521L53.0812 41.4154L53.1872 42.0481L54.1702 41.8791ZM54.0578 42.9868L54.9929 43.332L54.9949 43.3265L54.0578 42.9868ZM52.1926 44.3665L52.2724 45.3661L52.2791 45.3655L52.1926 44.3665ZM51.1152 44.1157L50.6277 44.9919L50.6304 44.9934L51.1152 44.1157ZM47.7732 39.686L47.2109 38.8591L46.3877 39.4269L46.95 40.2538L47.7732 39.686ZM48.6011 39.115L49.4242 38.5472L48.8619 37.7203L48.0388 38.2881L48.6011 39.115ZM51.8733 43.2149L51.6587 44.195L51.6638 44.1961L51.8733 43.2149ZM53.4819 42.3901L52.6151 41.8967L52.613 41.9005L53.4819 42.3901ZM53.6915 41.5312L52.6945 41.5375L52.6946 41.5449L53.6915 41.5312ZM54.1677 39.9758L51.992 36.7761L50.3456 37.9117L52.5214 41.1114L54.1677 39.9758ZM51.7311 38.1709L52.559 37.5998L51.4343 35.946L50.6065 36.517L51.7311 38.1709ZM51.1735 37.3407L54.854 42.7533L56.5004 41.6177L52.8198 36.2051L51.1735 37.3407ZM55.1149 41.3586L54.2871 41.9296L55.4117 43.5835L56.2395 43.0125L55.1149 41.3586ZM55.6725 42.1888L55.0495 41.2726L53.4032 42.4081L54.0262 43.3243L55.6725 42.1888ZM53.664 41.0134L53.6079 41.0521L54.7325 42.706L54.7887 42.6673L53.664 41.0134ZM53.1872 42.0481C53.2167 42.2243 53.203 42.4183 53.1206 42.647L54.9949 43.3265C55.1838 42.8022 55.245 42.2577 55.1533 41.7101L53.1872 42.0481ZM53.1226 42.6416C53.0729 42.777 52.9575 42.9502 52.6793 43.1421L53.8039 44.796C54.3395 44.4265 54.7682 43.9449 54.9929 43.332L53.1226 42.6416ZM52.6793 43.1421C52.4665 43.2889 52.2783 43.3518 52.1061 43.3674L52.2791 45.3655C52.8321 45.3157 53.3431 45.1138 53.8039 44.796L52.6793 43.1421ZM52.1128 43.3668C51.966 43.379 51.8017 43.3505 51.6 43.2381L50.6304 44.9934C51.1369 45.2758 51.6909 45.4145 52.2724 45.3661L52.1128 43.3668ZM51.6027 43.2396C51.4204 43.1372 51.1912 42.9341 50.9351 42.5575L49.2887 43.6931C49.6588 44.2374 50.0984 44.6946 50.6277 44.9919L51.6027 43.2396ZM50.9351 42.5575L48.5964 39.1183L46.95 40.2538L49.2887 43.6931L50.9351 42.5575ZM48.3355 40.513L49.1634 39.942L48.0388 38.2881L47.2109 38.8591L48.3355 40.513ZM47.7779 39.6828L50.0782 43.0657L51.7246 41.9301L49.4242 38.5472L47.7779 39.6828ZM50.0782 43.0657C50.4559 43.6212 50.9784 44.0457 51.6587 44.195L52.088 42.2348C52.0091 42.2175 51.8836 42.164 51.7246 41.9301L50.0782 43.0657ZM51.6638 44.1961C52.3319 44.339 52.9713 44.19 53.5242 43.8087L52.3995 42.1548C52.2648 42.2477 52.1786 42.2542 52.0828 42.2337L51.6638 44.1961ZM53.5242 43.8087C53.8746 43.5669 54.1464 43.246 54.3509 42.8796L52.613 41.9005C52.5356 42.0391 52.4606 42.1127 52.3995 42.1548L53.5242 43.8087ZM54.3487 42.8834C54.587 42.4608 54.6937 41.9967 54.6883 41.5174L52.6946 41.5449C52.6964 41.7026 52.6634 41.8111 52.6151 41.8967L54.3487 42.8834ZM54.6883 41.5249C54.6861 40.9545 54.4787 40.433 54.1677 39.9758L52.5214 41.1114C52.6705 41.3307 52.6943 41.4676 52.6946 41.5375L54.6883 41.5249Z" fill="#00575B" mask="url(#path-16-outside-6_1_72)"/>
<mask id="path-18-outside-7_1_72" maskUnits="userSpaceOnUse" x="56.1638" y="28.4094" width="10.489" height="13.6462" fill="black">
<rect fill="white" x="56.1638" y="28.4094" width="10.489" height="13.6462"/>
<path d="M61.7841 32.4091L62.0592 33.2157L58.8536 34.3247L58.5784 33.5181L61.7841 32.4091ZM59.0065 31.7106L59.9569 31.3818L61.9708 37.2865C62.0625 37.5553 62.1703 37.7435 62.294 37.851C62.4194 37.9549 62.5517 38.0084 62.6908 38.0113C62.8317 38.0107 62.9719 37.9862 63.1115 37.9379C63.2162 37.9017 63.3003 37.8666 63.3638 37.8326C63.4263 37.796 63.4763 37.7666 63.5138 37.7446L63.9988 38.5328C63.9426 38.5793 63.8609 38.6346 63.7537 38.6988C63.6474 38.7656 63.5057 38.8297 63.3285 38.891C63.06 38.9838 62.7772 39.0171 62.48 38.9906C62.1855 38.9632 61.9134 38.8605 61.6635 38.6824C61.4164 38.5034 61.2314 38.2337 61.1085 37.8734L59.0065 31.7106Z"/>
</mask>
<path d="M61.7841 32.4091L62.7291 32.0821L62.4063 31.1356L61.4613 31.4626L61.7841 32.4091ZM62.0592 33.2157L62.382 34.1622L63.327 33.8352L63.0042 32.8888L62.0592 33.2157ZM58.8536 34.3247L57.9085 34.6517L58.2313 35.5982L59.1764 35.2712L58.8536 34.3247ZM58.5784 33.5181L58.2556 32.5716L57.3106 32.8986L57.6334 33.845L58.5784 33.5181ZM59.0065 31.7106L58.6837 30.7642L57.7387 31.0911L58.0615 32.0376L59.0065 31.7106ZM59.9569 31.3818L60.902 31.0549L60.5792 30.1084L59.6341 30.4354L59.9569 31.3818ZM62.294 37.851L61.6384 38.6087L61.6474 38.6165L61.6565 38.6241L62.294 37.851ZM62.6908 38.0113L62.666 39.0125L62.6789 39.0127L62.6919 39.0127L62.6908 38.0113ZM63.3638 37.8326L63.8318 38.7156L63.8489 38.7064L63.8656 38.6966L63.3638 37.8326ZM63.5138 37.7446L64.3643 37.2168L63.8538 36.3871L63.012 36.8807L63.5138 37.7446ZM63.9988 38.5328L64.6329 39.3042L65.3059 38.7472L64.8492 38.0049L63.9988 38.5328ZM63.7537 38.6988L63.2441 37.8393L63.2346 37.845L63.2252 37.851L63.7537 38.6988ZM62.48 38.9906L62.3844 39.9877L62.3883 39.988L62.48 38.9906ZM61.6635 38.6824L61.0769 39.4948L61.083 39.4992L61.6635 38.6824ZM60.839 32.736L61.1141 33.5427L63.0042 32.8888L62.7291 32.0821L60.839 32.736ZM61.7364 32.2692L58.5308 33.3783L59.1764 35.2712L62.382 34.1622L61.7364 32.2692ZM59.7986 33.9978L59.5235 33.1911L57.6334 33.845L57.9085 34.6517L59.7986 33.9978ZM58.9013 34.4646L62.1069 33.3555L61.4613 31.4626L58.2556 32.5716L58.9013 34.4646ZM59.3293 32.6571L60.2797 32.3283L59.6341 30.4354L58.6837 30.7642L59.3293 32.6571ZM59.0119 31.7088L61.0258 37.6134L62.9159 36.9595L60.902 31.0549L59.0119 31.7088ZM61.0258 37.6134C61.1381 37.9428 61.3173 38.3297 61.6384 38.6087L62.9495 37.0934C62.994 37.1321 63.0021 37.1551 62.987 37.1286C62.9727 37.1036 62.9471 37.051 62.9159 36.9595L61.0258 37.6134ZM61.6565 38.6241C61.9238 38.8453 62.2657 39.0039 62.666 39.0125L62.7156 37.0102C62.7698 37.0114 62.8207 37.0229 62.8632 37.04C62.904 37.0565 62.9264 37.0739 62.9314 37.078L61.6565 38.6241ZM62.6919 39.0127C62.9473 39.0115 63.1961 38.9668 63.4343 38.8844L62.7887 36.9915C62.7477 37.0057 62.7161 37.0099 62.6898 37.01L62.6919 39.0127ZM63.4343 38.8844C63.5654 38.8391 63.7039 38.7841 63.8318 38.7156L62.8957 36.9497C62.8985 36.9482 62.8918 36.952 62.872 36.9602C62.8527 36.9683 62.8254 36.9788 62.7887 36.9915L63.4343 38.8844ZM63.8656 38.6966C63.9282 38.6599 63.9782 38.6306 64.0157 38.6086L63.012 36.8807C62.9744 36.9027 62.9244 36.932 62.8619 36.9687L63.8656 38.6966ZM62.6634 38.2725L63.1484 39.0607L64.8492 38.0049L64.3643 37.2168L62.6634 38.2725ZM63.3647 37.7614C63.3683 37.7585 63.3613 37.7645 63.3384 37.7799C63.3165 37.7948 63.2857 37.8145 63.2441 37.8393L64.2633 39.5582C64.388 39.4835 64.5195 39.3981 64.6329 39.3042L63.3647 37.7614ZM63.2252 37.851C63.2069 37.8625 63.1426 37.8971 63.0057 37.9445L63.6513 39.8374C63.8688 39.7622 64.088 39.6687 64.2822 39.5466L63.2252 37.851ZM63.0057 37.9445C62.8773 37.9889 62.7362 38.0078 62.5717 37.9932L62.3883 39.988C62.8182 40.0263 63.2428 39.9787 63.6513 39.8374L63.0057 37.9445ZM62.5756 37.9935C62.4627 37.983 62.3567 37.9459 62.244 37.8656L61.083 39.4992C61.4701 39.7751 61.9084 39.9434 62.3844 39.9877L62.5756 37.9935ZM62.2502 37.87C62.2066 37.8384 62.1263 37.7598 62.0535 37.5464L60.1634 38.2004C60.3364 38.7076 60.6262 39.1683 61.0769 39.4948L62.2502 37.87ZM62.0535 37.5464L59.9516 31.3837L58.0615 32.0376L60.1634 38.2004L62.0535 37.5464Z" fill="#00575B" mask="url(#path-18-outside-7_1_72)"/>
<mask id="path-20-outside-8_1_72" maskUnits="userSpaceOnUse" x="76.341" y="26.8184" width="10.9006" height="13.3735" fill="black">
<rect fill="white" x="76.341" y="26.8184" width="10.9006" height="13.3735"/>
<path d="M84.5178 31.3971C84.5406 30.9627 84.3932 30.5967 84.0754 30.299C83.7576 30.0013 83.3385 29.807 82.818 29.7162C82.4373 29.6498 82.0937 29.6532 81.7871 29.7266C81.4832 29.8005 81.233 29.9313 81.0364 30.119C80.8425 30.3073 80.722 30.5386 80.6748 30.8129C80.6353 31.0425 80.656 31.2494 80.7367 31.4337C80.8207 31.6156 80.9401 31.7763 81.0948 31.9158C81.25 32.0524 81.4167 32.1724 81.595 32.2756C81.7737 32.376 81.9393 32.4611 82.0916 32.5309L82.9243 32.9185C83.138 33.0164 83.3731 33.141 83.6296 33.2925C83.8888 33.4444 84.129 33.632 84.35 33.8551C84.5743 34.0759 84.7452 34.3393 84.8627 34.6453C84.9801 34.9513 85.0041 35.3059 84.9348 35.7091C84.8548 36.1738 84.6608 36.5726 84.3528 36.9052C84.0476 37.2384 83.6436 37.475 83.141 37.6151C82.6412 37.7557 82.061 37.7684 81.4006 37.6532C80.7849 37.5457 80.2688 37.3533 79.8525 37.0759C79.4389 36.7989 79.1339 36.4602 78.9376 36.0597C78.7441 35.6597 78.6711 35.2216 78.7184 34.7454L79.7931 34.9329C79.7652 35.2626 79.8281 35.5504 79.9818 35.7964C80.1388 36.0401 80.3553 36.2393 80.6313 36.3942C80.9106 36.5468 81.221 36.6528 81.5624 36.7124C81.9598 36.7818 82.3277 36.7797 82.6661 36.7061C83.005 36.6297 83.2868 36.4914 83.5115 36.2912C83.7366 36.0883 83.8762 35.83 83.9302 35.5164C83.9793 35.2309 83.9395 34.9846 83.8108 34.7775C83.6821 34.5705 83.4973 34.3883 83.2563 34.2309C83.0153 34.0735 82.7509 33.9264 82.4631 33.7897L81.4572 33.3027C80.8188 32.9923 80.3345 32.6237 80.0043 32.197C79.6742 31.7702 79.559 31.2671 79.6587 30.6875C79.7415 30.206 79.9439 29.8087 80.2658 29.4957C80.591 29.1805 80.9918 28.962 81.4682 28.8404C81.9479 28.7165 82.462 28.7024 83.0105 28.7981C83.5646 28.8948 84.0401 29.0802 84.4369 29.3542C84.8341 29.6254 85.1293 29.9537 85.3224 30.3392C85.5183 30.7253 85.586 31.1365 85.5253 31.5729L84.5178 31.3971Z"/>
</mask>
<path d="M84.5178 31.3971L83.5196 31.3422L83.4729 32.2298L84.3482 32.3826L84.5178 31.3971ZM84.0754 30.299L83.3932 31.0286L83.3932 31.0286L84.0754 30.299ZM81.7871 29.7266L81.5525 28.7536L81.5491 28.7544L81.7871 29.7266ZM81.0364 30.119L80.3454 29.3945L80.3394 29.4003L81.0364 30.119ZM80.7367 31.4337L79.8214 31.8337L79.8253 31.8427L79.8295 31.8517L80.7367 31.4337ZM81.0948 31.9158L80.4267 32.6585L80.4354 32.6662L81.0948 31.9158ZM81.595 32.2756L81.0959 33.1413L81.1072 33.1477L81.595 32.2756ZM82.0916 32.5309L82.5114 31.624L82.5062 31.6216L82.0916 32.5309ZM82.9243 32.9185L82.5044 33.8254L82.5102 33.8281L82.9243 32.9185ZM83.6296 33.2925L83.123 34.1537L83.1259 34.1554L83.6296 33.2925ZM84.35 33.8551L83.6409 34.5587L83.6499 34.5675L84.35 33.8551ZM84.8627 34.6453L85.7957 34.2885L85.7957 34.2885L84.8627 34.6453ZM84.3528 36.9052L83.6189 36.2244L83.6153 36.2282L84.3528 36.9052ZM83.141 37.6151L82.8708 36.6514L82.8685 36.652L83.141 37.6151ZM79.8525 37.0759L79.2979 37.907L79.2998 37.9082L79.8525 37.0759ZM78.9376 36.0597L78.0381 36.494L78.0404 36.4987L78.9376 36.0597ZM78.7184 34.7454L78.888 33.7598L77.83 33.5752L77.7237 34.6441L78.7184 34.7454ZM79.7931 34.9329L80.7891 35.0195L80.8665 34.1051L79.9626 33.9474L79.7931 34.9329ZM79.9818 35.7964L79.1345 36.3255L79.142 36.3371L79.9818 35.7964ZM80.6313 36.3942L80.144 37.2666L80.154 37.2721L80.6313 36.3942ZM82.6661 36.7061L82.8805 37.6837L82.8879 37.682L82.6661 36.7061ZM83.5115 36.2912L84.177 37.0392L84.1813 37.0353L83.5115 36.2912ZM83.8108 34.7775L84.6592 34.2505L84.6592 34.2505L83.8108 34.7775ZM83.2563 34.2309L82.7113 35.0683L82.7113 35.0683L83.2563 34.2309ZM82.4631 33.7897L82.0294 34.6901L82.036 34.6932L82.4631 33.7897ZM81.4572 33.3027L81.0221 34.2023L81.0235 34.2031L81.4572 33.3027ZM80.0043 32.197L79.2145 32.8083L79.2145 32.8083L80.0043 32.197ZM80.2658 29.4957L79.5695 28.7764L79.5685 28.7774L80.2658 29.4957ZM81.4682 28.8404L81.7173 29.8098L81.7201 29.8091L81.4682 28.8404ZM84.4369 29.3542L83.8704 30.1772L83.8749 30.1802L84.4369 29.3542ZM85.3224 30.3392L84.429 30.786L84.4314 30.7907L85.3224 30.3392ZM85.5253 31.5729L85.3557 32.5584L86.3731 32.736L86.5154 31.7129L85.5253 31.5729ZM85.516 31.4519C85.5544 30.7223 85.2912 30.0692 84.7577 29.5694L83.3932 31.0286C83.4952 31.1242 83.5269 31.2031 83.5196 31.3422L85.516 31.4519ZM84.7577 29.5694C84.2694 29.112 83.6584 28.8477 82.9875 28.7307L82.6484 30.7017C83.0185 30.7663 83.2459 30.8906 83.3932 31.0286L84.7577 29.5694ZM82.9875 28.7307C82.502 28.6459 82.0177 28.6423 81.5525 28.7536L82.0216 30.6996C82.1697 30.6642 82.3727 30.6536 82.6484 30.7017L82.9875 28.7307ZM81.5491 28.7544C81.1009 28.8634 80.6866 29.0687 80.3455 29.3945L81.7273 30.8436C81.7793 30.7938 81.8655 30.7376 82.0251 30.6988L81.5491 28.7544ZM80.3394 29.4003C79.9895 29.7402 79.7716 30.1649 79.6897 30.641L81.6599 30.9849C81.6724 30.9122 81.6956 30.8743 81.7333 30.8377L80.3394 29.4003ZM79.6897 30.641C79.6224 31.0323 79.6499 31.4424 79.8214 31.8337L81.652 31.0336C81.6552 31.041 81.6556 31.0458 81.6553 31.0433C81.655 31.0396 81.6537 31.0214 81.6599 30.9849L79.6897 30.641ZM79.8295 31.8517C79.9727 32.1618 80.1752 32.4317 80.4267 32.6584L81.7628 31.1731C81.7049 31.1209 81.6687 31.0694 81.6439 31.0157L79.8295 31.8517ZM80.4354 32.6662C80.64 32.8463 80.8604 33.0049 81.0959 33.1412L82.0941 31.4099C81.9731 31.3399 81.86 31.2586 81.7541 31.1653L80.4354 32.6662ZM81.1072 33.1477C81.3048 33.2587 81.495 33.3568 81.6769 33.4403L82.5062 31.6216C82.3835 31.5653 82.2427 31.4933 82.0827 31.4034L81.1072 33.1477ZM81.6717 33.4379L82.5044 33.8254L83.3441 32.0115L82.5114 31.624L81.6717 33.4379ZM82.5102 33.8281C82.6853 33.9082 82.8891 34.0156 83.123 34.1537L84.1362 32.4312C83.8572 32.2665 83.5908 32.1245 83.3384 32.0089L82.5102 33.8281ZM83.1259 34.1554C83.3068 34.2614 83.4784 34.3945 83.6409 34.5586L85.0591 33.1516C84.7795 32.8694 84.4709 32.6274 84.1333 32.4295L83.1259 34.1554ZM83.6499 34.5675C83.7678 34.6837 83.8614 34.8243 83.9296 35.0022L85.7957 34.2885C85.6291 33.8543 85.3808 33.4682 85.0502 33.1427L83.6499 34.5675ZM83.9296 35.0022C83.9681 35.1025 83.996 35.2677 83.9497 35.5372L85.9199 35.881C86.0122 35.3441 85.9921 34.8002 85.7957 34.2885L83.9296 35.0022ZM83.9497 35.5372C83.9011 35.8193 83.7904 36.0391 83.6189 36.2244L85.0867 37.5861C85.5312 37.106 85.8085 36.5284 85.9199 35.881L83.9497 35.5372ZM83.6153 36.2282C83.4544 36.4039 83.2222 36.5534 82.8708 36.6514L83.4112 38.5789C84.0651 38.3966 84.6407 38.0729 85.0903 37.5822L83.6153 36.2282ZM82.8685 36.652C82.5479 36.7422 82.1245 36.7644 81.5701 36.6676L81.231 38.6387C81.9976 38.7724 82.7345 38.7693 83.4135 38.5783L82.8685 36.652ZM81.5701 36.6676C81.0581 36.5783 80.6806 36.4271 80.4051 36.2435L79.2998 37.9082C79.8571 38.2795 80.5116 38.5131 81.231 38.6387L81.5701 36.6676ZM80.407 36.2448C80.1227 36.0544 79.9447 35.8448 79.8349 35.6208L78.0404 36.4987C78.3232 37.0756 78.7551 37.5435 79.2979 37.9069L80.407 36.2448ZM79.8372 35.6254C79.7304 35.4048 79.6825 35.154 79.7131 34.8466L77.7237 34.6441C77.6596 35.2892 77.7578 35.9146 78.0381 36.494L79.8372 35.6254ZM78.5489 35.7309L79.6235 35.9184L79.9626 33.9474L78.888 33.7598L78.5489 35.7309ZM78.797 34.8463C78.7536 35.3598 78.8501 35.8701 79.1346 36.3254L80.829 35.2674C80.8061 35.2307 80.7768 35.1653 80.7891 35.0195L78.797 34.8463ZM79.142 36.3371C79.3957 36.7309 79.7387 37.0392 80.144 37.2666L81.1186 35.5218C80.9719 35.4395 80.8818 35.3492 80.8216 35.2556L79.142 36.3371ZM80.154 37.2721C80.5376 37.4816 80.9533 37.6213 81.3929 37.698L81.732 35.7269C81.4886 35.6844 81.2836 35.6119 81.1086 35.5163L80.154 37.2721ZM81.3929 37.698C81.897 37.7859 82.397 37.7888 82.8805 37.6837L82.4517 35.7284C82.2585 35.7705 82.0226 35.7776 81.732 35.7269L81.3929 37.698ZM82.8879 37.682C83.366 37.5742 83.8079 37.368 84.177 37.0392L82.846 35.5433C82.7657 35.6148 82.644 35.6851 82.4444 35.7301L82.8879 37.682ZM84.1813 37.0353C84.5812 36.6749 84.8253 36.2113 84.9153 35.6884L82.945 35.3445C82.9271 35.4488 82.8921 35.5017 82.8416 35.5472L84.1813 37.0353ZM84.9153 35.6884C84.9976 35.2096 84.9414 34.7044 84.6592 34.2505L82.9624 35.3046C82.9594 35.2999 82.9564 35.2938 82.9539 35.2871C82.9514 35.2804 82.9505 35.276 82.9504 35.275C82.95 35.2729 82.9538 35.2933 82.945 35.3445L84.9153 35.6884ZM84.6592 34.2505C84.4405 33.8986 84.1428 33.6166 83.8012 33.3935L82.7113 35.0683C82.8517 35.16 82.9238 35.2425 82.9624 35.3046L84.6592 34.2505ZM83.8012 33.3935C83.5187 33.2089 83.2144 33.0402 82.8901 32.8861L82.036 34.6932C82.2873 34.8126 82.5118 34.938 82.7113 35.0683L83.8012 33.3935ZM82.8967 32.8893L81.8909 32.4023L81.0235 34.2031L82.0294 34.69L82.8967 32.8893ZM81.8923 32.403C81.3506 32.1396 81.0048 31.8579 80.7942 31.5856L79.2145 32.8083C79.6642 33.3896 80.287 33.8449 81.0221 34.2023L81.8923 32.403ZM80.7942 31.5856C80.6528 31.4029 80.5868 31.1905 80.6438 30.8594L78.6736 30.5156C78.5311 31.3436 78.6955 32.1375 79.2145 32.8083L80.7942 31.5856ZM80.6438 30.8594C80.6941 30.5669 80.8058 30.3671 80.9631 30.2141L79.5685 28.7774C79.082 29.2503 78.7889 29.845 78.6736 30.5156L80.6438 30.8594ZM80.9621 30.2151C81.1521 30.0309 81.3945 29.8922 81.7173 29.8098L81.2191 27.871C80.5891 28.0319 80.0299 28.3301 79.5695 28.7764L80.9621 30.2151ZM81.7201 29.8091C82.0461 29.7249 82.4153 29.7094 82.8409 29.7836L83.18 27.8126C82.5086 27.6954 81.8496 27.7081 81.2163 27.8717L81.7201 29.8091ZM82.8409 29.7836C83.2763 29.8596 83.611 29.998 83.8704 30.1772L85.0033 28.5312C84.4691 28.1623 83.8529 27.93 83.18 27.8126L82.8409 29.7836ZM83.8749 30.1802C84.1479 30.3666 84.3209 30.5701 84.429 30.786L86.2158 29.8925C85.9377 29.3374 85.5204 28.8841 84.9989 28.5281L83.8749 30.1802ZM84.4314 30.7907C84.5328 30.9905 84.5683 31.1949 84.5352 31.4328L86.5154 31.7129C86.6036 31.0781 86.5038 30.46 86.2134 29.8878L84.4314 30.7907ZM85.6948 30.5874L84.6873 30.4115L84.3482 32.3826L85.3557 32.5584L85.6948 30.5874Z" fill="#00575B" mask="url(#path-20-outside-8_1_72)"/>
<mask id="path-22-outside-9_1_72" maskUnits="userSpaceOnUse" x="87.6792" y="32.1064" width="12.5531" height="13.0556" fill="black">
<rect fill="white" x="87.6792" y="32.1064" width="12.5531" height="13.0556"/>
<path d="M92.6673 41.4995C92.1082 41.2078 91.6895 40.8323 91.4113 40.3732C91.1369 39.9128 91.0052 39.4019 91.016 38.8404C91.0307 38.2777 91.1914 37.6983 91.498 37.1021C91.8047 36.5058 92.1832 36.0369 92.6337 35.6951C93.088 35.3522 93.576 35.155 94.0977 35.1035C94.6231 35.0508 95.1478 35.1611 95.6717 35.4344C95.9739 35.5921 96.2464 35.7983 96.4892 36.0531C96.7319 36.3079 96.9157 36.6121 97.0405 36.9656C97.1667 37.3166 97.206 37.7152 97.1586 38.1615C97.1112 38.6078 96.9478 39.1025 96.6684 39.6457L96.4735 40.0246L92.0002 37.6909L92.3978 36.9178L95.9644 38.7785C96.1333 38.4501 96.2185 38.1228 96.2201 37.7968C96.2241 37.4721 96.1449 37.1728 95.9823 36.8989C95.8222 36.6264 95.5809 36.406 95.2585 36.2378C94.9034 36.0525 94.5506 35.9806 94.2002 36.0221C93.8536 36.0624 93.539 36.1866 93.2562 36.3948C92.9735 36.6029 92.7496 36.8674 92.5846 37.1883L92.3195 37.7037C92.0934 38.1432 91.9773 38.5553 91.9712 38.9398C91.9689 39.3231 92.0629 39.6653 92.253 39.9664C92.4445 40.265 92.7203 40.5082 93.0805 40.6961C93.3148 40.8183 93.5432 40.8958 93.7659 40.9287C93.9924 40.9604 94.2094 40.9454 94.4168 40.8838C94.6255 40.8196 94.8196 40.7062 94.9991 40.5435L95.7357 41.2354C95.4943 41.4812 95.2094 41.6594 94.881 41.77C94.5539 41.8781 94.201 41.9119 93.8225 41.8714C93.4453 41.8285 93.0602 41.7045 92.6673 41.4995Z"/>
</mask>
<path d="M91.4113 40.3732L90.5558 40.8861L90.5596 40.8923L91.4113 40.3732ZM91.016 38.8404L90.0187 38.8108L90.0186 38.8176L91.016 38.8404ZM92.6337 35.6951L92.0328 34.893L92.0309 34.8944L92.6337 35.6951ZM94.0977 35.1035L94.1985 36.1011L94.2 36.1009L94.0977 35.1035ZM96.4892 36.0531L97.2087 35.3613L97.2087 35.3613L96.4892 36.0531ZM97.0405 36.9656L96.1005 37.298L96.1023 37.3033L97.0405 36.9656ZM97.1586 38.1615L98.1506 38.2713L98.1506 38.2712L97.1586 38.1615ZM96.4735 40.0246L96.0161 40.9139L96.9027 41.3764L97.3601 40.4871L96.4735 40.0246ZM92.0002 37.6909L91.1136 37.2283L90.6562 38.1176L91.5428 38.5802L92.0002 37.6909ZM92.3978 36.9178L92.8552 36.0285L91.9686 35.566L91.5112 36.4553L92.3978 36.9178ZM95.9644 38.7785L95.507 39.6678L96.3936 40.1303L96.851 39.241L95.9644 38.7785ZM96.2201 37.7968L95.2225 37.7808L95.2225 37.7886L96.2201 37.7968ZM95.9823 36.8989L95.1235 37.4063L95.126 37.4104L95.9823 36.8989ZM94.2002 36.0221L94.3181 37.0179L94.3203 37.0176L94.2002 36.0221ZM93.2562 36.3948L92.6649 35.5855L92.6649 35.5855L93.2562 36.3948ZM91.9712 38.9398L90.9737 38.9205L90.9736 38.9305L91.9712 38.9398ZM92.253 39.9664L91.4112 40.5015L91.415 40.5074L92.253 39.9664ZM93.7659 40.9287L93.6242 41.9205L93.6317 41.9215L93.7659 40.9287ZM94.4168 40.8838L94.7026 41.8451L94.7115 41.8424L94.4168 40.8838ZM94.9991 40.5435L95.679 39.8123L95.0087 39.1827L94.3295 39.7982L94.9991 40.5435ZM95.7357 41.2354L96.4469 41.9408L97.1659 41.2089L96.4157 40.5042L95.7357 41.2354ZM94.881 41.77L95.1955 42.7223L95.2009 42.7205L94.881 41.77ZM93.8225 41.8714L93.7134 42.8675L93.7203 42.8682L93.8225 41.8714ZM93.1247 40.6102C92.6989 40.3881 92.4301 40.1299 92.263 39.8541L90.5596 40.8923C90.9489 41.5348 91.5174 42.0275 92.2099 42.3888L93.1247 40.6102ZM92.2667 39.8603C92.0936 39.5698 92.0061 39.246 92.0135 38.8633L90.0186 38.8176C90.0043 39.5578 90.1803 40.2559 90.5559 40.886L92.2667 39.8603ZM92.0133 38.8701C92.0234 38.4848 92.1337 38.0525 92.3846 37.5646L90.6114 36.6395C90.2491 37.344 90.0381 38.0707 90.0188 38.8108L92.0133 38.8701ZM92.3846 37.5646C92.6354 37.077 92.9244 36.7326 93.2365 36.4958L92.0309 34.8944C91.4421 35.3411 90.9739 35.9347 90.6114 36.6395L92.3846 37.5646ZM93.2347 36.4973C93.5563 36.2545 93.8738 36.1331 94.1985 36.1011L93.9968 34.1059C93.2783 34.1768 92.6198 34.4499 92.0328 34.893L93.2347 36.4973ZM94.2 36.1009C94.5107 36.0697 94.8421 36.1295 95.2143 36.3237L96.1291 34.5451C95.4535 34.1927 94.7356 34.0318 93.9953 34.1061L94.2 36.1009ZM95.2143 36.3237C95.416 36.4289 95.6005 36.5675 95.7696 36.745L97.2087 35.3613C96.8923 35.0291 96.5319 34.7553 96.1291 34.5451L95.2143 36.3237ZM95.7696 36.745C95.9081 36.8904 96.0199 37.0698 96.1005 37.298L97.9806 36.6332C97.8115 36.1544 97.5556 35.7254 97.2087 35.3613L95.7696 36.745ZM96.1023 37.3033C96.1676 37.4847 96.2012 37.7262 96.1666 38.0517L98.1506 38.2712C98.2108 37.7043 98.1658 37.1485 97.9787 36.6279L96.1023 37.3033ZM96.1666 38.0517C96.1361 38.3389 96.0238 38.7125 95.7818 39.1831L97.555 40.1082C97.8717 39.4924 98.0862 38.8766 98.1506 38.2713L96.1666 38.0517ZM95.7818 39.1831L95.5869 39.5621L97.3601 40.4871L97.555 40.1082L95.7818 39.1831ZM96.9309 39.1353L92.4576 36.8016L91.5428 38.5802L96.0161 40.9139L96.9309 39.1353ZM92.8868 38.1534L93.2844 37.3804L91.5112 36.4553L91.1136 37.2283L92.8868 38.1534ZM91.9404 37.8071L95.507 39.6678L96.4217 37.8892L92.8552 36.0285L91.9404 37.8071ZM96.851 39.241C97.0822 38.7914 97.2153 38.3096 97.2177 37.805L95.2225 37.7886C95.2218 37.9361 95.1843 38.1088 95.0778 38.316L96.851 39.241ZM97.2176 37.8128C97.224 37.3066 97.0978 36.8242 96.8385 36.3875L95.126 37.4104C95.1919 37.5215 95.2243 37.6376 95.2225 37.7808L97.2176 37.8128ZM96.841 36.3916C96.5714 35.9328 96.1789 35.5901 95.7159 35.3485L94.8011 37.1271C94.9829 37.2219 95.0729 37.32 95.1235 37.4062L96.841 36.3916ZM95.7159 35.3485C95.2073 35.0832 94.6546 34.9586 94.0801 35.0266L94.3203 37.0176C94.4466 37.0026 94.5994 37.0218 94.8011 37.1271L95.7159 35.3485ZM94.0823 35.0264C93.5633 35.0867 93.0857 35.2757 92.6649 35.5855L93.8476 37.2041C93.9922 37.0976 94.144 37.0381 94.3181 37.0179L94.0823 35.0264ZM92.6649 35.5855C92.2552 35.8871 91.9316 36.2715 91.698 36.7257L93.4712 37.6508C93.5676 37.4634 93.6918 37.3188 93.8476 37.2041L92.6649 35.5855ZM91.698 36.7257L91.4329 37.2411L93.2061 38.1662L93.4712 37.6508L91.698 36.7257ZM91.4329 37.2411C91.156 37.7796 90.9829 38.3436 90.9737 38.9205L92.9687 38.9592C92.9717 38.767 93.0308 38.5069 93.2061 38.1662L91.4329 37.2411ZM90.9736 38.9305C90.9703 39.491 91.1103 40.025 91.4112 40.5015L93.0948 39.4313C93.0155 39.3057 92.9676 39.1553 92.9688 38.9492L90.9736 38.9305ZM91.415 40.5074C91.7143 40.974 92.1314 41.3288 92.6231 41.5854L93.5379 39.8068C93.3093 39.6876 93.1748 39.5559 93.0911 39.4255L91.415 40.5074ZM92.6231 41.5854C92.9396 41.7505 93.2743 41.8688 93.6242 41.9204L93.9076 39.937C93.8121 39.9229 93.6899 39.8861 93.5379 39.8068L92.6231 41.5854ZM93.6317 41.9215C93.9909 41.9717 94.3516 41.9494 94.7026 41.8451L94.1309 39.9225C94.0671 39.9414 93.9939 39.949 93.9001 39.9359L93.6317 41.9215ZM94.7115 41.8424C95.0737 41.731 95.3931 41.5386 95.6686 41.2888L94.3295 39.7982C94.2461 39.8738 94.1772 39.9082 94.122 39.9251L94.7115 41.8424ZM94.3191 41.2747L95.0558 41.9666L96.4157 40.5042L95.679 39.8123L94.3191 41.2747ZM95.0246 40.5301C94.8934 40.6636 94.7428 40.7583 94.5611 40.8195L95.2009 42.7205C95.6761 42.5605 96.0953 42.2988 96.4469 41.9408L95.0246 40.5301ZM94.5665 40.8177C94.3868 40.877 94.1774 40.9017 93.9248 40.8747L93.7203 42.8682C94.2247 42.9221 94.7209 42.8791 95.1955 42.7223L94.5665 40.8177ZM93.9317 40.8755C93.6943 40.8484 93.4266 40.7677 93.1247 40.6102L92.2099 42.3888C92.6939 42.6412 93.1963 42.8085 93.7134 42.8674L93.9317 40.8755Z" fill="#00575B" mask="url(#path-22-outside-9_1_72)"/>
<mask id="path-24-outside-10_1_72" maskUnits="userSpaceOnUse" x="96.9885" y="39.0033" width="12.6625" height="12.7908" fill="black">
<rect fill="white" x="96.9885" y="39.0033" width="12.6625" height="12.7908"/>
<path d="M106.591 45.6938L105.768 45.2451C105.832 45.0971 105.874 44.9332 105.893 44.7535C105.917 44.5738 105.895 44.3845 105.826 44.1859C105.757 43.9872 105.618 43.7854 105.409 43.5805C105.123 43.3001 104.821 43.1327 104.502 43.0785C104.187 43.0242 103.932 43.0982 103.736 43.3004C103.562 43.4802 103.49 43.6858 103.519 43.9172C103.548 44.1487 103.667 44.4344 103.876 44.7744L104.404 45.6262C104.723 46.1381 104.883 46.5997 104.885 47.0109C104.888 47.4202 104.731 47.7892 104.413 48.118C104.152 48.3877 103.842 48.5531 103.483 48.6143C103.125 48.6776 102.75 48.6362 102.358 48.4902C101.966 48.3442 101.588 48.0932 101.225 47.7372C100.748 47.2697 100.454 46.7787 100.344 46.2641C100.233 45.7494 100.329 45.2511 100.633 44.7693L101.48 45.266C101.3 45.5829 101.239 45.8932 101.297 46.1969C101.358 46.5025 101.535 46.7996 101.829 47.088C102.164 47.4162 102.498 47.6053 102.833 47.6552C103.172 47.7052 103.44 47.629 103.635 47.4268C103.793 47.2634 103.868 47.0709 103.862 46.8492C103.857 46.6255 103.763 46.3707 103.581 46.0848L102.98 45.1371C102.651 44.6153 102.489 44.1487 102.496 43.7373C102.506 43.3259 102.669 42.9578 102.983 42.6331C103.239 42.3675 103.54 42.2052 103.886 42.1462C104.233 42.0891 104.592 42.1287 104.962 42.2649C105.335 42.4031 105.685 42.6333 106.014 42.9555C106.476 43.409 106.74 43.8672 106.807 44.33C106.875 44.7949 106.803 45.2494 106.591 45.6938Z"/>
</mask>
<path d="M106.591 45.6938L106.116 46.5763L107.035 47.0776L107.489 46.129L106.591 45.6938ZM105.768 45.2451L104.855 44.8439L104.489 45.6887L105.294 46.1276L105.768 45.2451ZM105.893 44.7535L104.906 44.6216L104.904 44.6326L104.903 44.6436L105.893 44.7535ZM105.826 44.1859L106.767 43.8559L106.767 43.8559L105.826 44.1859ZM104.502 43.0785L104.334 44.0677L104.336 44.0681L104.502 43.0785ZM103.519 43.9172L102.531 44.0432L102.531 44.0432L103.519 43.9172ZM103.876 44.7744L103.028 45.3021L103.031 45.3056L103.876 44.7744ZM104.404 45.6262L103.558 46.1574L103.56 46.1597L104.404 45.6262ZM104.885 47.0109L103.888 47.0144L103.888 47.0193L104.885 47.0109ZM103.483 48.6143L103.316 47.6248L103.31 47.6259L103.483 48.6143ZM100.344 46.2641L101.317 46.0513L101.317 46.0513L100.344 46.2641ZM100.633 44.7693L101.134 43.9019L100.306 43.4163L99.7917 44.2311L100.633 44.7693ZM101.48 45.266L102.345 45.7643L102.836 44.8998L101.981 44.3987L101.48 45.266ZM101.297 46.1969L100.319 46.3866L100.32 46.3917L101.297 46.1969ZM102.833 47.6552L102.688 48.648L102.689 48.6482L102.833 47.6552ZM103.862 46.8492L102.865 46.8715L102.866 46.8807L103.862 46.8492ZM103.581 46.0848L102.741 46.625L102.742 46.6263L103.581 46.0848ZM102.98 45.1371L102.139 45.6753L102.14 45.6774L102.98 45.1371ZM102.496 43.7373L101.5 43.7113L101.5 43.7211L102.496 43.7373ZM103.886 42.1462L103.725 41.1557L103.719 41.1568L103.886 42.1462ZM104.962 42.2649L105.307 41.3233L105.304 41.3223L104.962 42.2649ZM106.807 44.33L105.82 44.473L105.821 44.4767L106.807 44.33ZM107.065 44.8114L106.242 44.3627L105.294 46.1276L106.116 46.5763L107.065 44.8114ZM106.681 45.6463C106.79 45.3953 106.855 45.1317 106.884 44.8634L104.903 44.6436C104.893 44.7347 104.874 44.7988 104.855 44.8439L106.681 45.6463ZM106.881 44.8854C106.928 44.527 106.879 44.179 106.767 43.8559L104.885 44.5158C104.911 44.5901 104.906 44.6205 104.906 44.6216L106.881 44.8854ZM106.767 43.8559C106.631 43.4637 106.383 43.1347 106.104 42.8616L104.714 44.2995C104.854 44.4361 104.883 44.5107 104.885 44.5158L106.767 43.8559ZM106.104 42.8616C105.708 42.4724 105.229 42.1843 104.667 42.0889L104.336 44.0681C104.413 44.0811 104.539 44.1277 104.714 44.2995L106.104 42.8616ZM104.67 42.0893C104.084 41.9884 103.481 42.1253 103.022 42.6003L104.45 44.0006C104.444 44.0068 104.432 44.0182 104.412 44.0302C104.392 44.0424 104.371 44.0517 104.35 44.0577C104.307 44.0701 104.295 44.0609 104.334 44.0677L104.67 42.0893ZM103.022 42.6003C102.655 42.9799 102.46 43.4833 102.531 44.0432L104.508 43.7913C104.511 43.82 104.51 43.8696 104.491 43.9247C104.472 43.9776 104.449 44.0022 104.45 44.0006L103.022 42.6003ZM102.531 44.0432C102.586 44.4844 102.791 44.915 103.028 45.3021L104.723 44.2467C104.639 44.1093 104.584 44.0002 104.549 43.9173C104.532 43.8765 104.522 43.8454 104.515 43.8232C104.509 43.8009 104.508 43.7907 104.508 43.7913L102.531 44.0432ZM103.031 45.3056L103.558 46.1574L105.249 45.095L104.721 44.2432L103.031 45.3056ZM103.56 46.1597C103.824 46.5828 103.888 46.8591 103.888 47.0144L105.881 47.0075C105.879 46.3403 105.622 45.6934 105.248 45.0927L103.56 46.1597ZM103.888 47.0193C103.889 47.131 103.858 47.2534 103.699 47.4179L105.127 48.8182C105.604 48.325 105.887 47.7094 105.881 47.0026L103.888 47.0193ZM103.699 47.4179C103.582 47.539 103.462 47.6 103.316 47.6248L103.649 49.6038C104.222 49.5061 104.723 49.2363 105.127 48.8182L103.699 47.4179ZM103.31 47.6259C103.151 47.654 102.956 47.6428 102.703 47.5489L102.013 49.4316C102.545 49.6296 103.099 49.7011 103.655 49.6028L103.31 47.6259ZM102.703 47.5489C102.466 47.4607 102.204 47.2966 101.92 47.0182L100.53 48.4561C100.972 48.8898 101.465 49.2278 102.013 49.4316L102.703 47.5489ZM101.92 47.0182C101.546 46.651 101.377 46.327 101.317 46.0513L99.3698 46.4768C99.5322 47.2304 99.951 47.8884 100.53 48.4561L101.92 47.0182ZM101.317 46.0513C101.267 45.8177 101.298 45.5869 101.474 45.3074L99.7917 44.2311C99.3602 44.9153 99.1982 45.6811 99.3698 46.4768L101.317 46.0513ZM100.132 45.6366L100.979 46.1333L101.981 44.3987L101.134 43.9019L100.132 45.6366ZM100.615 44.7677C100.34 45.2533 100.208 45.8061 100.319 46.3866L102.276 46.0072C102.271 45.9804 102.261 45.9125 102.345 45.7643L100.615 44.7677ZM100.32 46.3917C100.43 46.9527 100.742 47.4223 101.134 47.8069L102.524 46.369C102.328 46.1768 102.285 46.0524 102.275 46.002L100.32 46.3917ZM101.134 47.8069C101.563 48.2277 102.08 48.5574 102.688 48.648L102.979 46.6625C102.917 46.6532 102.764 46.6046 102.524 46.369L101.134 47.8069ZM102.689 48.6482C103.265 48.7331 103.88 48.6118 104.349 48.127L102.921 46.7266C102.93 46.7172 102.944 46.7049 102.964 46.6932C102.983 46.6815 103.002 46.6741 103.017 46.6699C103.046 46.6616 103.04 46.6714 102.977 46.6622L102.689 48.6482ZM104.349 48.127C104.69 47.7746 104.873 47.3203 104.857 46.8177L102.866 46.8807C102.865 46.8646 102.868 46.831 102.883 46.7911C102.899 46.7518 102.917 46.7304 102.921 46.7266L104.349 48.127ZM104.858 46.8269C104.847 46.3469 104.653 45.91 104.42 45.5433L102.742 46.6263C102.804 46.7227 102.836 46.7928 102.853 46.838C102.869 46.8826 102.866 46.8916 102.865 46.8715L104.858 46.8269ZM104.421 45.5446L103.82 44.5969L102.14 45.6774L102.741 46.625L104.421 45.5446ZM103.821 44.599C103.547 44.1648 103.49 43.8934 103.492 43.7536L101.5 43.7211C101.489 44.4041 101.754 45.0658 102.139 45.6753L103.821 44.599ZM103.492 43.7634C103.495 43.6309 103.538 43.4969 103.697 43.3332L102.269 41.9329C101.799 42.4187 101.517 43.0209 101.5 43.7113L103.492 43.7634ZM103.697 43.3332C103.814 43.212 103.926 43.1572 104.053 43.1356L103.719 41.1568C103.154 41.2533 102.665 41.5231 102.269 41.9329L103.697 43.3332ZM104.046 43.1367C104.206 43.1105 104.392 43.1232 104.621 43.2075L105.304 41.3223C104.793 41.1342 104.261 41.0678 103.725 41.1557L104.046 43.1367ZM104.618 43.2065C104.84 43.289 105.075 43.4352 105.319 43.6745L106.709 42.2366C106.296 41.8314 105.829 41.5172 105.307 41.3233L104.618 43.2065ZM105.319 43.6745C105.684 44.0327 105.796 44.3005 105.82 44.473L107.793 44.1871C107.685 43.4339 107.268 42.7854 106.709 42.2366L105.319 43.6745ZM105.821 44.4767C105.859 44.7329 105.823 44.9855 105.693 45.2586L107.489 46.129C107.783 45.5134 107.891 44.8568 107.792 44.1834L105.821 44.4767Z" fill="#00575B" mask="url(#path-24-outside-10_1_72)"/>
<mask id="path-26-outside-11_1_72" maskUnits="userSpaceOnUse" x="104.397" y="49.0148" width="12.5856" height="11.8756" fill="black">
<rect fill="white" x="104.397" y="49.0148" width="12.5856" height="11.8756"/>
<path d="M113.737 56.1835L113.079 55.5157C113.183 55.3927 113.271 55.2481 113.342 55.0819C113.416 54.9168 113.45 54.7293 113.441 54.5193C113.433 54.3093 113.359 54.076 113.218 53.8195C113.025 53.4683 112.784 53.2205 112.494 53.0761C112.208 52.9328 111.943 52.9295 111.697 53.0662C111.478 53.1878 111.35 53.3635 111.31 53.5933C111.271 53.8232 111.302 54.131 111.404 54.5167L111.662 55.4846C111.819 56.0668 111.839 56.5548 111.722 56.9486C111.606 57.3411 111.349 57.6484 110.949 57.8708C110.621 58.0531 110.276 58.1214 109.914 58.0757C109.554 58.0325 109.207 57.8842 108.873 57.6308C108.54 57.3774 108.251 57.0277 108.007 56.5818C107.686 55.9965 107.547 55.4416 107.589 54.9171C107.632 54.3926 107.869 53.944 108.3 53.5712L108.967 54.2921C108.703 54.5431 108.555 54.8222 108.522 55.1295C108.491 55.4393 108.575 55.7748 108.773 56.136C108.998 56.547 109.264 56.825 109.571 56.97C109.881 57.116 110.159 57.1207 110.404 56.984C110.603 56.8735 110.731 56.7112 110.789 56.4971C110.849 56.2817 110.833 56.0109 110.742 55.6846L110.44 54.6038C110.276 54.0092 110.257 53.516 110.383 53.1244C110.512 52.7339 110.774 52.4289 111.169 52.2093C111.491 52.0298 111.827 51.9619 112.175 52.0056C112.524 52.0519 112.856 52.1938 113.171 52.4314C113.488 52.6715 113.756 52.9934 113.978 53.3969C114.289 53.9648 114.409 54.4798 114.339 54.9417C114.269 55.4061 114.069 55.82 113.737 56.1835Z"/>
</mask>
<path d="M113.737 56.1835L113.027 56.89L113.762 57.6362L114.471 56.8603L113.737 56.1835ZM113.079 55.5157L112.321 54.867L111.726 55.569L112.369 56.2222L113.079 55.5157ZM113.342 55.0819L112.434 54.6692L112.429 54.6793L112.425 54.6895L113.342 55.0819ZM113.441 54.5193L114.438 54.4766L114.438 54.4766L113.441 54.5193ZM112.494 53.0761L112.047 53.9736L112.049 53.9746L112.494 53.0761ZM111.31 53.5933L110.327 53.4271L110.327 53.4271L111.31 53.5933ZM111.404 54.5167L110.439 54.7756L110.44 54.7796L111.404 54.5167ZM111.662 55.4846L110.699 55.7475L110.7 55.7502L111.662 55.4846ZM111.722 56.9486L110.766 56.6629L110.765 56.6676L111.722 56.9486ZM109.914 58.0757L110.042 57.0809L110.036 57.0802L109.914 58.0757ZM107.589 54.9171L108.583 54.996L108.583 54.996L107.589 54.9171ZM108.3 53.5712L109.031 52.8869L108.378 52.1821L107.65 52.8125L108.3 53.5712ZM108.967 54.2921L109.651 55.0197L110.372 54.3351L109.698 53.6079L108.967 54.2921ZM108.522 55.1295L107.53 55.0272L107.53 55.0324L108.522 55.1295ZM109.571 56.97L109.143 57.8772L109.145 57.878L109.571 56.97ZM110.789 56.4971L109.828 56.2296L109.826 56.2384L110.789 56.4971ZM110.742 55.6846L109.781 55.9578L109.781 55.9593L110.742 55.6846ZM110.44 54.6038L109.479 54.8746L109.48 54.877L110.44 54.6038ZM110.383 53.1244L109.436 52.8106L109.433 52.82L110.383 53.1244ZM112.175 52.0056L112.308 51.0116L112.302 51.0108L112.175 52.0056ZM113.171 52.4314L113.774 51.6306L113.772 51.6289L113.171 52.4314ZM114.339 54.9417L113.353 54.7924L113.352 54.7961L114.339 54.9417ZM114.447 55.477L113.789 54.8092L112.369 56.2222L113.027 56.89L114.447 55.477ZM113.837 56.1644C114.014 55.9558 114.152 55.7224 114.258 55.4743L112.425 54.6895C112.389 54.7737 112.352 54.8295 112.321 54.867L113.837 56.1644ZM114.249 55.4945C114.398 55.1654 114.451 54.8181 114.438 54.4766L112.445 54.562C112.448 54.6405 112.434 54.6682 112.434 54.6692L114.249 55.4945ZM114.438 54.4766C114.422 54.0621 114.279 53.6754 114.092 53.3334L112.344 54.3056C112.438 54.4767 112.444 54.5566 112.445 54.562L114.438 54.4766ZM114.092 53.3334C113.825 52.846 113.449 52.4315 112.94 52.1776L112.049 53.9746C112.119 54.0094 112.226 54.0905 112.344 54.3056L114.092 53.3334ZM112.942 52.1786C112.41 51.9122 111.793 51.8683 111.216 52.1894L112.178 53.9431C112.17 53.9473 112.155 53.9545 112.133 53.9603C112.11 53.9662 112.087 53.9689 112.065 53.9686C112.021 53.9681 112.011 53.9557 112.047 53.9736L112.942 52.1786ZM111.216 52.1894C110.754 52.4462 110.422 52.8711 110.327 53.4271L112.293 53.7596C112.289 53.7881 112.273 53.8352 112.239 53.8823C112.205 53.9275 112.176 53.9441 112.178 53.9431L111.216 52.1894ZM110.327 53.4271C110.253 53.8653 110.324 54.3365 110.439 54.7756L112.368 54.2577C112.327 54.1018 112.306 53.9814 112.297 53.8921C112.292 53.8482 112.291 53.8153 112.291 53.7923C112.292 53.7691 112.294 53.759 112.293 53.7596L110.327 53.4271ZM110.44 54.7796L110.699 55.7475L112.626 55.2216L112.367 54.2537L110.44 54.7796ZM110.7 55.7502C110.83 56.2314 110.811 56.5142 110.766 56.6629L112.677 57.2343C112.868 56.5954 112.809 55.9022 112.625 55.219L110.7 55.7502ZM110.765 56.6676C110.733 56.7747 110.668 56.8827 110.468 56.994L111.43 58.7476C112.029 58.4142 112.479 57.9074 112.678 57.2296L110.765 56.6676ZM110.468 56.994C110.321 57.0759 110.189 57.0995 110.042 57.081L109.787 59.0704C110.364 59.1433 110.922 59.0303 111.43 58.7476L110.468 56.994ZM110.036 57.0802C109.875 57.061 109.691 56.9935 109.477 56.8305L108.27 58.4311C108.722 58.7749 109.232 59.004 109.793 59.0712L110.036 57.0802ZM109.477 56.8305C109.275 56.6774 109.072 56.4444 108.88 56.0957L107.133 57.068C107.431 57.6111 107.805 58.0773 108.27 58.4311L109.477 56.8305ZM108.88 56.0957C108.628 55.6359 108.561 55.277 108.583 54.996L106.595 54.8382C106.533 55.6061 106.743 56.357 107.133 57.068L108.88 56.0957ZM108.583 54.996C108.603 54.758 108.699 54.5462 108.949 54.3299L107.65 52.8125C107.039 53.3418 106.662 54.0273 106.595 54.8382L108.583 54.996ZM107.568 54.2554L108.236 54.9764L109.698 53.6079L109.031 52.8869L107.568 54.2554ZM108.283 53.5646C107.878 53.9491 107.592 54.4397 107.53 55.0272L109.514 55.2319C109.517 55.2047 109.528 55.137 109.651 55.0197L108.283 53.5646ZM107.53 55.0324C107.473 55.601 107.635 56.1405 107.899 56.6221L109.647 55.6499C109.515 55.4092 109.51 55.2777 109.515 55.2266L107.53 55.0324ZM107.899 56.6221C108.188 57.1491 108.588 57.6144 109.143 57.8772L109.998 56.0627C109.941 56.0356 109.809 55.945 109.647 55.6499L107.899 56.6221ZM109.145 57.878C109.672 58.1262 110.296 58.1886 110.885 57.8608L109.924 56.1072C109.935 56.1008 109.952 56.0932 109.974 56.0876C109.996 56.0821 110.016 56.0803 110.031 56.0806C110.062 56.0811 110.053 56.0887 109.996 56.0619L109.145 57.878ZM110.885 57.8608C111.314 57.6225 111.621 57.2412 111.752 56.7558L109.826 56.2384C109.83 56.2229 109.842 56.1915 109.869 56.1578C109.895 56.1247 109.919 56.1097 109.924 56.1072L110.885 57.8608ZM111.749 56.7647C111.878 56.3026 111.819 55.8284 111.702 55.4099L109.781 55.9593C109.812 56.0693 109.823 56.1459 109.826 56.1939C109.829 56.2414 109.823 56.2489 109.828 56.2296L111.749 56.7647ZM111.702 55.4114L111.401 54.3306L109.48 54.877L109.781 55.9578L111.702 55.4114ZM111.402 54.333C111.265 53.8382 111.289 53.562 111.332 53.4289L109.433 52.82C109.225 53.4701 109.288 54.1802 109.479 54.8746L111.402 54.333ZM111.329 53.4383C111.37 53.3125 111.45 53.1968 111.649 53.0861L110.688 51.3325C110.097 51.661 109.653 52.1554 109.436 52.8106L111.329 53.4383ZM111.649 53.0861C111.797 53.0041 111.92 52.9844 112.048 53.0004L112.302 51.0108C111.733 50.9394 111.186 51.0554 110.688 51.3325L111.649 53.0861ZM112.041 52.9996C112.202 53.0208 112.376 53.0869 112.571 53.2339L113.772 51.6289C113.336 51.3007 112.846 51.0829 112.308 51.0116L112.041 52.9996ZM112.568 53.2322C112.757 53.3755 112.939 53.5833 113.104 53.883L114.852 52.9108C114.573 52.4034 114.218 51.9675 113.774 51.6307L112.568 53.2322ZM113.104 53.883C113.35 54.3316 113.379 54.6202 113.353 54.7924L115.325 55.091C115.44 54.3393 115.228 53.5981 114.852 52.9108L113.104 53.883ZM113.352 54.7961C113.314 55.0521 113.207 55.2834 113.003 55.5068L114.471 56.8603C114.931 56.3567 115.225 55.7601 115.325 55.0873L113.352 54.7961Z" fill="#00575B" mask="url(#path-26-outside-11_1_72)"/>
<mask id="path-28-outside-12_1_72" maskUnits="userSpaceOnUse" x="110.129" y="60.5013" width="11.9012" height="7.67646" fill="black">
<rect fill="white" x="110.129" y="60.5013" width="11.9012" height="7.67646"/>
<path d="M111.585 64.9416L117.908 63.2507L118.164 64.2231L111.841 65.914L111.585 64.9416ZM119.092 63.4633C119.042 63.2738 119.064 63.0931 119.156 62.9213C119.25 62.7522 119.387 62.6434 119.568 62.595C119.75 62.5465 119.922 62.5724 120.087 62.6725C120.252 62.7753 120.36 62.9215 120.41 63.1111C120.46 63.3006 120.438 63.4799 120.344 63.649C120.251 63.8209 120.115 63.931 119.933 63.9795C119.752 64.0279 119.579 64.0007 119.414 63.8978C119.249 63.7977 119.142 63.6529 119.092 63.4633Z"/>
</mask>
<path d="M111.585 64.9416L111.33 63.9746L110.364 64.233L110.619 65.1999L111.585 64.9416ZM117.908 63.2507L118.874 62.9924L118.619 62.0254L117.653 62.2837L117.908 63.2507ZM118.164 64.2231L118.419 65.1901L119.385 64.9318L119.13 63.9648L118.164 64.2231ZM111.841 65.914L110.875 66.1724L111.13 67.1393L112.096 66.881L111.841 65.914ZM119.156 62.9213L118.283 62.4383L118.278 62.4472L119.156 62.9213ZM120.087 62.6725L120.616 61.8219L120.608 61.8167L120.087 62.6725ZM120.344 63.649L119.471 63.1661L119.466 63.175L120.344 63.649ZM119.414 63.8978L119.943 63.0473L119.935 63.042L119.414 63.8978ZM111.84 65.9085L118.163 64.2177L117.653 62.2837L111.33 63.9746L111.84 65.9085ZM116.942 63.509L117.198 64.4815L119.13 63.9648L118.874 62.9924L116.942 63.509ZM117.909 63.2562L111.586 64.9471L112.096 66.881L118.419 65.1901L117.909 63.2562ZM112.807 65.6557L112.551 64.6833L110.619 65.1999L110.875 66.1724L112.807 65.6557ZM120.058 63.205C120.063 63.2222 120.068 63.2564 120.063 63.3006C120.058 63.3449 120.044 63.3779 120.035 63.3953L118.278 62.4472C118.063 62.8448 118.012 63.2875 118.126 63.7217L120.058 63.205ZM120.03 63.4042C120.019 63.4241 119.994 63.461 119.948 63.4972C119.901 63.5339 119.855 63.5534 119.823 63.5619L119.313 61.628C118.861 61.7491 118.504 62.0381 118.283 62.4383L120.03 63.4042ZM119.823 63.5619C119.791 63.5705 119.742 63.5766 119.683 63.5679C119.626 63.5593 119.585 63.54 119.566 63.5283L120.608 61.8167C120.218 61.5797 119.766 61.5069 119.313 61.628L119.823 63.5619ZM119.558 63.523C119.541 63.5126 119.513 63.4906 119.487 63.4547C119.46 63.419 119.448 63.3866 119.444 63.3694L121.376 62.8527C121.261 62.4186 120.998 62.0599 120.616 61.822L119.558 63.523ZM119.444 63.3694C119.439 63.3523 119.433 63.3167 119.439 63.2699C119.445 63.2228 119.459 63.1867 119.471 63.1661L121.218 64.132C121.439 63.7326 121.49 63.2873 121.376 62.8527L119.444 63.3694ZM119.466 63.175C119.476 63.1561 119.501 63.1184 119.548 63.0808C119.596 63.0426 119.644 63.0218 119.678 63.0125L120.188 64.9464C120.648 64.8236 121.005 64.5273 121.223 64.1231L119.466 63.175ZM119.678 63.0125C119.713 63.0032 119.765 62.9971 119.825 63.0066C119.885 63.0159 119.925 63.036 119.943 63.0473L118.885 64.7483C119.273 64.9903 119.729 65.0693 120.188 64.9464L119.678 63.0125ZM119.935 63.042C119.955 63.0542 119.985 63.0783 120.013 63.1163C120.041 63.1541 120.054 63.1879 120.058 63.205L118.126 63.7217C118.241 64.1562 118.505 64.5172 118.893 64.7536L119.935 63.042Z" fill="#00575B" mask="url(#path-28-outside-12_1_72)"/>
<mask id="path-30-outside-13_1_72" maskUnits="userSpaceOnUse" x="110.981" y="70.2673" width="10.0194" height="9.02182" fill="black">
<rect fill="white" x="110.981" y="70.2673" width="10.0194" height="9.02182"/>
<path d="M112.854 74.8647C112.853 74.2737 112.993 73.755 113.273 73.3083C113.553 72.8645 113.946 72.5171 114.451 72.266C114.956 72.0177 115.547 71.8929 116.223 71.8914C116.905 71.8899 117.5 72.0122 118.009 72.2582C118.518 72.5071 118.914 72.8528 119.196 73.2954C119.478 73.7408 119.62 74.259 119.621 74.8499C119.623 75.4408 119.483 75.9581 119.203 76.4019C118.923 76.8486 118.529 77.196 118.021 77.4443C117.513 77.6954 116.918 77.8217 116.236 77.8232C115.56 77.8247 114.969 77.701 114.462 77.4521C113.956 77.206 113.562 76.8603 113.28 76.4149C112.997 75.9723 112.856 75.4556 112.854 74.8647ZM113.758 74.8627C113.759 75.3115 113.875 75.6806 114.105 75.9699C114.336 76.2591 114.639 76.473 115.014 76.6114C115.39 76.7497 115.796 76.8185 116.234 76.8175C116.671 76.8165 117.079 76.7461 117.456 76.606C117.834 76.466 118.139 76.2508 118.371 75.9606C118.603 75.6703 118.719 75.3007 118.718 74.8518C118.717 74.403 118.6 74.0339 118.366 73.7447C118.133 73.4554 117.827 73.2416 117.449 73.1032C117.071 72.9648 116.663 72.8961 116.225 72.8971C115.788 72.898 115.382 72.9685 115.007 73.1085C114.632 73.2486 114.33 73.4637 114.101 73.754C113.871 74.0442 113.757 74.4138 113.758 74.8627Z"/>
</mask>
<path d="M113.273 73.3083L112.428 72.7744L112.426 72.7768L113.273 73.3083ZM114.451 72.266L114.01 71.3685L114.006 71.3705L114.451 72.266ZM118.009 72.2582L118.449 71.3598L118.445 71.3579L118.009 72.2582ZM119.196 73.2954L120.041 72.7602L120.039 72.7577L119.196 73.2954ZM119.203 76.4019L118.357 75.8679L118.356 75.8704L119.203 76.4019ZM118.021 77.4443L117.581 76.5458L117.577 76.5478L118.021 77.4443ZM114.462 77.4521L114.904 76.5546L114.899 76.5527L114.462 77.4521ZM113.28 76.4149L114.124 75.8796L114.123 75.8772L113.28 76.4149ZM114.105 75.9699L114.887 75.3463L114.887 75.3463L114.105 75.9699ZM115.014 76.6114L114.668 77.5496L114.668 77.5496L115.014 76.6114ZM117.456 76.606L117.804 77.5436L117.804 77.5436L117.456 76.606ZM118.371 75.9606L119.152 76.5854L119.152 76.5854L118.371 75.9606ZM118.366 73.7447L119.144 73.1164L119.144 73.1164L118.366 73.7447ZM117.449 73.1032L117.792 72.1641L117.792 72.1641L117.449 73.1032ZM115.007 73.1085L114.657 72.1718L114.657 72.1718L115.007 73.1085ZM114.101 73.754L114.885 74.3741L114.885 74.3741L114.101 73.754ZM113.854 74.8625C113.854 74.4369 113.952 74.1078 114.12 73.8399L112.426 72.7768C112.034 73.4021 111.853 74.1106 111.854 74.8668L113.854 74.8625ZM114.118 73.8423C114.294 73.565 114.542 73.3373 114.896 73.1615L114.006 71.3705C113.35 71.6969 112.813 72.1641 112.428 72.7744L114.118 73.8423ZM114.892 73.1635C115.236 72.9945 115.671 72.8926 116.225 72.8914L116.221 70.8914C115.423 70.8931 114.677 71.0409 114.01 71.3685L114.892 73.1635ZM116.225 72.8914C116.786 72.8902 117.227 72.9906 117.574 73.1586L118.445 71.3579C117.774 71.0337 117.023 70.8896 116.221 70.8914L116.225 72.8914ZM117.57 73.1566C117.928 73.3314 118.178 73.5579 118.353 73.8331L120.039 72.7577C119.65 72.1477 119.109 71.6829 118.449 71.3598L117.57 73.1566ZM118.352 73.8306C118.521 74.0979 118.621 74.4265 118.621 74.8521L120.621 74.8477C120.62 74.0915 120.436 73.3838 120.041 72.7602L118.352 73.8306ZM118.621 74.8521C118.622 75.2778 118.524 75.6042 118.357 75.8679L120.048 76.9359C120.442 76.3121 120.623 75.6038 120.621 74.8477L118.621 74.8521ZM118.356 75.8704C118.182 76.1476 117.935 76.3733 117.581 76.5458L118.46 78.3427C119.123 78.0187 119.663 77.5495 120.05 76.9335L118.356 75.8704ZM117.577 76.5478C117.232 76.7187 116.793 76.822 116.234 76.8232L116.238 78.8232C117.042 78.8214 117.793 78.672 118.464 78.3407L117.577 76.5478ZM116.234 76.8232C115.681 76.8244 115.247 76.7236 114.904 76.5547L114.021 78.3495C114.69 78.6784 115.438 78.8249 116.238 78.8232L116.234 76.8232ZM114.899 76.5527C114.549 76.3821 114.3 76.1575 114.124 75.8796L112.435 76.9501C112.823 77.563 113.364 78.0299 114.025 78.3514L114.899 76.5527ZM114.123 75.8772C113.955 75.6142 113.855 75.2882 113.854 74.8625L111.854 74.8668C111.856 75.6229 112.04 76.3304 112.437 76.9525L114.123 75.8772ZM112.758 74.8649C112.759 75.4899 112.924 76.0924 113.324 76.5935L114.887 75.3463C114.825 75.2688 114.758 75.1332 114.758 74.8605L112.758 74.8649ZM113.324 76.5935C113.677 77.037 114.136 77.3534 114.668 77.5496L115.36 75.6731C115.142 75.5926 114.995 75.4813 114.887 75.3463L113.324 76.5935ZM114.668 77.5496C115.165 77.7328 115.691 77.8187 116.236 77.8175L116.232 75.8175C115.902 75.8182 115.614 75.7667 115.36 75.6731L114.668 77.5496ZM116.236 77.8175C116.781 77.8163 117.307 77.7281 117.804 77.5436L117.109 75.6684C116.851 75.764 116.561 75.8168 116.232 75.8175L116.236 77.8175ZM117.804 77.5436C118.337 77.3459 118.797 77.029 119.152 76.5854L117.59 75.3357C117.481 75.4727 117.331 75.5861 117.109 75.6684L117.804 77.5436ZM119.152 76.5854C119.554 76.0824 119.719 75.4775 119.718 74.8497L117.718 74.854C117.719 75.1239 117.652 75.2581 117.59 75.3357L119.152 76.5854ZM119.718 74.8497C119.717 74.2218 119.549 73.6176 119.144 73.1164L117.588 74.3729C117.651 74.4502 117.718 74.5841 117.718 74.854L119.718 74.8497ZM119.144 73.1164C118.787 72.6744 118.326 72.3594 117.792 72.1641L117.105 74.0423C117.328 74.1237 117.478 74.2364 117.588 74.3729L119.144 73.1164ZM117.792 72.1641C117.294 71.9818 116.768 71.8959 116.223 71.8971L116.227 73.8971C116.557 73.8963 116.847 73.9478 117.105 74.0423L117.792 72.1641ZM116.223 71.8971C115.678 71.8983 115.153 71.9865 114.657 72.1718L115.357 74.0453C115.61 73.9505 115.898 73.8978 116.227 73.8971L116.223 71.8971ZM114.657 72.1718C114.126 72.3704 113.668 72.6888 113.316 73.1338L114.885 74.3741C114.992 74.2386 115.139 74.1267 115.357 74.0453L114.657 72.1718ZM113.316 73.1338C112.919 73.6366 112.757 74.2398 112.758 74.8649L114.758 74.8605C114.757 74.5878 114.824 74.4519 114.885 74.3741L113.316 73.1338Z" fill="#00575B" mask="url(#path-30-outside-13_1_72)"/>
<mask id="path-32-outside-14_1_72" maskUnits="userSpaceOnUse" x="108.903" y="82.2068" width="11.33" height="11.3778" fill="black">
<rect fill="white" x="108.903" y="82.2068" width="11.33" height="11.3778"/>
<path d="M115.47 86.536L111.731 85.3028L112.042 84.3464L118.258 86.3965L117.957 87.3205L116.986 87.0001L116.96 87.0812C117.228 87.3312 117.41 87.6364 117.504 87.9967C117.602 88.358 117.574 88.7736 117.422 89.2437C117.285 89.6652 117.078 90.0055 116.803 90.2647C116.53 90.5247 116.191 90.6851 115.786 90.746C115.384 90.8077 114.918 90.7513 114.389 90.5769L110.439 89.2743L110.75 88.3179L114.635 89.5992C115.124 89.7602 115.545 89.7587 115.901 89.5946C116.258 89.4314 116.509 89.1283 116.653 88.6852C116.753 88.3799 116.775 88.0853 116.721 87.8012C116.666 87.5199 116.534 87.2685 116.326 87.047C116.117 86.8256 115.832 86.6553 115.47 86.536Z"/>
</mask>
<path d="M111.731 85.3028L110.781 84.9896L110.472 85.9406L111.421 86.2538L111.731 85.3028ZM112.042 84.3464L112.351 83.3954L111.401 83.0822L111.092 84.0332L112.042 84.3464ZM118.258 86.3965L119.207 86.7097L119.517 85.7587L118.567 85.4455L118.258 86.3965ZM117.957 87.3205L117.648 88.2715L118.598 88.5847L118.907 87.6337L117.957 87.3205ZM116.986 87.0001L117.295 86.0491L116.346 85.7359L116.036 86.6869L116.986 87.0001ZM116.96 87.0812L116.01 86.768L115.812 87.3765L116.281 87.8134L116.96 87.0812ZM117.504 87.9967L116.539 88.2493L116.541 88.2555L117.504 87.9967ZM116.803 90.2647L116.118 89.5335L116.113 89.538L116.803 90.2647ZM115.786 90.746L115.635 89.7557L115.632 89.7562L115.786 90.746ZM110.439 89.2743L109.49 88.9611L109.181 89.912L110.13 90.2253L110.439 89.2743ZM110.75 88.3179L111.06 87.3669L110.11 87.0537L109.801 88.0047L110.75 88.3179ZM115.901 89.5946L115.484 88.683L115.48 88.6851L115.901 89.5946ZM116.721 87.8012L117.702 87.6169L117.701 87.6122L116.721 87.8012ZM116.326 87.047L117.05 86.3605L117.05 86.3605L116.326 87.047ZM115.779 85.585L112.04 84.3518L111.421 86.2538L115.161 87.487L115.779 85.585ZM112.68 85.616L112.991 84.6596L111.092 84.0332L110.781 84.9896L112.68 85.616ZM111.732 85.2974L117.949 87.3475L118.567 85.4455L112.351 83.3954L111.732 85.2974ZM117.308 86.0833L117.008 87.0073L118.907 87.6337L119.207 86.7097L117.308 86.0833ZM118.267 86.3695L117.295 86.0491L116.677 87.9511L117.648 88.2715L118.267 86.3695ZM116.036 86.6869L116.01 86.768L117.909 87.3944L117.936 87.3133L116.036 86.6869ZM116.281 87.8134C116.408 87.9317 116.492 88.0696 116.539 88.2493L118.47 87.7442C118.328 87.2031 118.048 86.7307 117.638 86.349L116.281 87.8134ZM116.541 88.2555C116.573 88.3766 116.584 88.5868 116.472 88.9305L118.371 89.557C118.565 88.9605 118.631 88.3393 118.468 87.738L116.541 88.2555ZM116.472 88.9305C116.378 89.2197 116.252 89.4072 116.118 89.5335L117.488 90.9958C117.904 90.6039 118.191 90.1107 118.371 89.557L116.472 88.9305ZM116.113 89.538C116.002 89.6445 115.856 89.7225 115.635 89.7557L115.937 91.7362C116.526 91.6477 117.059 91.4049 117.492 90.9913L116.113 89.538ZM115.632 89.7562C115.431 89.787 115.13 89.7681 114.698 89.6259L114.08 91.5279C114.706 91.7345 115.337 91.8283 115.94 91.7357L115.632 89.7562ZM114.698 89.6259L110.749 88.3233L110.13 90.2253L114.08 91.5279L114.698 89.6259ZM111.389 89.5875L111.7 88.6311L109.801 88.0047L109.49 88.9611L111.389 89.5875ZM110.441 89.2689L114.326 90.5502L114.945 88.6482L111.06 87.3669L110.441 89.2689ZM114.326 90.5502C114.978 90.765 115.673 90.8037 116.321 90.5042L115.48 88.6851C115.418 88.7137 115.27 88.7554 114.945 88.6482L114.326 90.5502ZM116.317 90.5062C116.975 90.2062 117.39 89.6544 117.603 88.9984L115.704 88.372C115.629 88.6022 115.542 88.6567 115.484 88.6831L116.317 90.5062ZM117.603 88.9984C117.748 88.5511 117.791 88.085 117.702 87.6169L115.74 87.9855C115.759 88.0855 115.757 88.2087 115.704 88.372L117.603 88.9984ZM117.701 87.6122C117.608 87.1325 117.381 86.7113 117.05 86.3605L115.601 87.7336C115.688 87.8256 115.725 87.9072 115.741 87.9902L117.701 87.6122ZM117.05 86.3605C116.702 85.9907 116.26 85.7435 115.779 85.585L115.161 87.487C115.404 87.5671 115.532 87.6605 115.601 87.7336L117.05 86.3605Z" fill="#00575B" mask="url(#path-32-outside-14_1_72)"/>
<mask id="path-34-outside-15_1_72" maskUnits="userSpaceOnUse" x="102.188" y="92.8509" width="12.7473" height="12.3743" fill="black">
<rect fill="white" x="102.188" y="92.8509" width="12.7473" height="12.3743"/>
<path d="M108.762 102.339L109.079 101.453C109.234 101.495 109.401 101.513 109.581 101.506C109.761 101.503 109.943 101.452 110.128 101.355C110.313 101.257 110.49 101.089 110.66 100.851C110.893 100.525 111.012 100.199 111.017 99.8731C111.023 99.5514 110.912 99.3081 110.684 99.1433C110.482 98.9968 110.269 98.9551 110.046 99.0182C109.823 99.0813 109.56 99.2419 109.258 99.4998L108.5 100.151C108.045 100.544 107.616 100.772 107.212 100.834C106.811 100.898 106.425 100.796 106.054 100.528C105.751 100.308 105.542 100.024 105.428 99.6746C105.312 99.3279 105.296 98.9485 105.381 98.5364C105.466 98.1242 105.655 97.7111 105.951 97.2971C106.338 96.7535 106.776 96.3885 107.265 96.2022C107.754 96.0158 108.258 96.0383 108.777 96.2698L108.416 97.1869C108.078 97.0544 107.764 97.0395 107.474 97.1422C107.183 97.2471 106.918 97.4673 106.679 97.8027C106.407 98.1843 106.271 98.5456 106.272 98.8865C106.274 99.2314 106.389 99.4863 106.617 99.6511C106.801 99.7843 107.001 99.8311 107.218 99.7915C107.437 99.7535 107.673 99.6229 107.927 99.3995L108.767 98.6612C109.23 98.2564 109.664 98.0269 110.069 97.9727C110.475 97.9225 110.861 98.0298 111.227 98.2945C111.526 98.511 111.731 98.7869 111.84 99.1222C111.948 99.4599 111.963 99.823 111.885 100.212C111.805 100.603 111.632 100.986 111.364 101.36C110.988 101.888 110.578 102.218 110.133 102.353C109.687 102.489 109.23 102.484 108.762 102.339Z"/>
</mask>
<path d="M108.762 102.339L107.824 101.996L107.469 102.986L108.469 103.297L108.762 102.339ZM109.079 101.453L109.336 100.485L108.452 100.245L108.141 101.111L109.079 101.453ZM109.581 101.506L109.562 100.503L109.551 100.503L109.54 100.503L109.581 101.506ZM110.128 101.355L110.593 102.243L110.593 102.243L110.128 101.355ZM111.017 99.8731L110.02 99.8518L110.02 99.8541L111.017 99.8731ZM110.046 99.0182L109.774 98.0525L109.774 98.0525L110.046 99.0182ZM109.258 99.4998L108.612 98.7338L108.609 98.7365L109.258 99.4998ZM108.5 100.151L107.852 99.3877L107.85 99.3895L108.5 100.151ZM107.212 100.834L107.06 99.8424L107.055 99.8432L107.212 100.834ZM105.428 99.6746L106.375 99.363L106.373 99.357L105.428 99.6746ZM107.265 96.2022L107.62 97.1404L107.62 97.1404L107.265 96.2022ZM108.777 96.2698L109.704 96.641L110.056 95.7444L109.179 95.3529L108.777 96.2698ZM108.416 97.1869L108.056 98.1217L108.979 98.483L109.343 97.558L108.416 97.1869ZM107.474 97.1422L107.141 96.1959L107.136 96.1976L107.474 97.1422ZM106.272 98.8865L105.275 98.8877L105.275 98.8896L106.272 98.8865ZM107.218 99.7915L107.047 98.8028L107.038 98.8044L107.218 99.7915ZM107.927 99.3995L107.27 98.6431L107.269 98.6441L107.927 99.3995ZM108.767 98.6612L108.113 97.9031L108.111 97.9047L108.767 98.6612ZM110.069 97.9727L109.946 96.977L109.936 96.9782L110.069 97.9727ZM111.84 99.1222L112.789 98.8164L112.787 98.8102L111.84 99.1222ZM111.885 100.212L112.861 100.416L112.862 100.413L111.885 100.212ZM110.133 102.353L109.845 101.392L109.842 101.393L110.133 102.353ZM109.699 102.681L110.017 101.795L108.141 101.111L107.824 101.996L109.699 102.681ZM108.822 102.422C109.085 102.493 109.353 102.519 109.621 102.508L109.54 100.503C109.449 100.507 109.383 100.497 109.336 100.485L108.822 102.422ZM109.599 102.509C109.958 102.503 110.293 102.402 110.593 102.243L109.663 100.466C109.594 100.503 109.563 100.503 109.562 100.503L109.599 102.509ZM110.593 102.243C110.958 102.05 111.244 101.754 111.47 101.437L109.85 100.265C109.736 100.424 109.668 100.464 109.663 100.466L110.593 102.243ZM111.47 101.437C111.793 100.984 112.004 100.465 112.014 99.892L110.02 99.8541C110.019 99.9326 109.992 100.065 109.85 100.265L111.47 101.437ZM112.014 99.8943C112.025 99.2963 111.8 98.7163 111.265 98.3291L110.104 99.9575C110.097 99.9524 110.084 99.9416 110.069 99.9239C110.054 99.9059 110.042 99.8859 110.033 99.8661C110.014 99.8253 110.021 99.8117 110.02 99.8518L112.014 99.8943ZM111.265 98.3291C110.837 98.0196 110.314 97.8998 109.774 98.0525L110.318 99.984C110.29 99.9918 110.241 99.998 110.184 99.9868C110.13 99.9761 110.102 99.9562 110.104 99.9575L111.265 98.3291ZM109.774 98.0525C109.349 98.1728 108.957 98.4401 108.612 98.7338L109.903 100.266C110.025 100.162 110.124 100.09 110.2 100.044C110.238 100.021 110.267 100.006 110.288 99.9962C110.309 99.9866 110.318 99.9838 110.318 99.984L109.774 98.0525ZM108.609 98.7365L107.852 99.3877L109.149 100.914L109.906 100.263L108.609 98.7365ZM107.85 99.3895C107.474 99.7145 107.212 99.8189 107.06 99.8424L107.365 101.826C108.02 101.725 108.617 101.374 109.151 100.913L107.85 99.3895ZM107.055 99.8432C106.945 99.8606 106.82 99.8476 106.635 99.7135L105.474 101.342C106.03 101.744 106.677 101.935 107.37 101.825L107.055 99.8432ZM106.635 99.7135C106.499 99.6147 106.421 99.5044 106.374 99.363L104.481 99.9861C104.663 100.543 105.003 101.001 105.474 101.342L106.635 99.7135ZM106.373 99.357C106.321 99.203 106.303 99.0065 106.357 98.7413L104.405 98.3315C104.29 98.8906 104.303 99.4529 104.483 99.9921L106.373 99.357ZM106.357 98.7413C106.408 98.4924 106.53 98.2069 106.761 97.8832L105.14 96.711C104.781 97.2153 104.523 97.756 104.405 98.3315L106.357 98.7413ZM106.761 97.8832C107.065 97.4562 107.358 97.2402 107.62 97.1404L106.91 95.2639C106.195 95.5368 105.611 96.0508 105.14 96.711L106.761 97.8832ZM107.62 97.1404C107.842 97.0558 108.073 97.0525 108.374 97.1868L109.179 95.3529C108.442 95.0242 107.666 94.9758 106.91 95.2639L107.62 97.1404ZM107.85 95.8987L107.489 96.8158L109.343 97.558L109.704 96.641L107.85 95.8987ZM108.776 96.2521C108.257 96.0491 107.695 95.9997 107.141 96.1959L107.807 98.0885C107.833 98.0794 107.898 98.0598 108.056 98.1217L108.776 96.2521ZM107.136 96.1976C106.602 96.3902 106.187 96.7693 105.868 97.2166L107.489 98.3888C107.648 98.1652 107.764 98.104 107.812 98.0867L107.136 96.1976ZM105.868 97.2166C105.52 97.7059 105.273 98.2695 105.275 98.8877L107.269 98.8853C107.269 98.8217 107.294 98.6627 107.489 98.3888L105.868 97.2166ZM105.275 98.8896C105.278 99.4757 105.49 100.07 106.036 100.465L107.197 98.8369C107.208 98.8446 107.222 98.8571 107.237 98.8747C107.251 98.8923 107.261 98.9097 107.267 98.9237C107.28 98.9514 107.269 98.9468 107.269 98.8835L105.275 98.8896ZM106.036 100.465C106.433 100.753 106.907 100.868 107.398 100.779L107.038 98.8044C107.053 98.8016 107.087 98.7992 107.128 98.8089C107.169 98.8184 107.193 98.8339 107.197 98.8369L106.036 100.465ZM107.389 100.78C107.859 100.699 108.259 100.441 108.584 100.155L107.269 98.6441C107.184 98.7195 107.12 98.7625 107.078 98.7856C107.036 98.8085 107.027 98.8063 107.047 98.8028L107.389 100.78ZM108.583 100.156L109.424 99.4176L108.111 97.9047L107.27 98.6431L108.583 100.156ZM109.422 99.4192C109.807 99.0824 110.065 98.9856 110.203 98.9672L109.936 96.9782C109.264 97.0682 108.654 97.4304 108.113 97.9031L109.422 99.4192ZM110.193 98.9684C110.324 98.9522 110.462 98.9752 110.646 99.1087L111.807 97.4803C111.26 97.0843 110.626 96.8928 109.946 96.977L110.193 98.9684ZM110.646 99.1087C110.783 99.2076 110.853 99.3115 110.894 99.4343L112.787 98.8102C112.608 98.2622 112.269 97.8144 111.807 97.4803L110.646 99.1087ZM110.892 99.4281C110.941 99.583 110.957 99.7699 110.908 100.01L112.862 100.413C112.97 99.8762 112.956 99.3367 112.789 98.8164L110.892 99.4281ZM110.909 100.008C110.861 100.241 110.753 100.496 110.554 100.774L112.175 101.946C112.511 101.475 112.749 100.964 112.861 100.416L110.909 100.008ZM110.554 100.774C110.257 101.191 110.011 101.342 109.845 101.392L110.422 103.314C111.145 103.095 111.72 102.585 112.175 101.946L110.554 100.774ZM109.842 101.393C109.596 101.468 109.342 101.47 109.055 101.38L108.469 103.297C109.118 103.499 109.779 103.51 110.425 103.312L109.842 101.393Z" fill="#00575B" mask="url(#path-34-outside-15_1_72)"/>
</svg>
